<?xml version="1.0" standalone="no"?>
<!DOCTYPE svg PUBLIC "-//W3C//DTD SVG 1.1//EN" "http://www.w3.org/Graphics/SVG/1.1/DTD/svg11.dtd" >
<!--
2026-4-19: Created with FontForge (http://fontforge.org)
-->
<svg xmlns="http://www.w3.org/2000/svg" xmlns:xlink="http://www.w3.org/1999/xlink" version="1.1">
<metadata>
Created by FontForge 20251009 at Sun Apr 19 18:02:18 2026
 By Jonas Hahnfeld
This font is distributed under the GNU General Public License.
As a special exception, if you create a document which uses
this font, and embed this font or unaltered portions of this
font into the document, this font does not by itself cause the
resulting document to be covered by the GNU General Public License.

</metadata>
<defs>
<font id="Emmentaler-14" horiz-adv-x="243" >
  <font-face 
    font-family="Emmentaler-14"
    font-weight="400"
    font-stretch="normal"
    units-per-em="1000"
    panose-1="2 0 5 3 0 0 0 0 0 0"
    ascent="800"
    descent="-200"
    x-height="267"
    bbox="-521 -2312 1382 2124"
    underline-thickness="50"
    underline-position="-100"
    unicode-range="U+0020-1D12B"
  />
    <missing-glyph />
    <glyph glyph-name="rests.0" unicode="&#xe000;" horiz-adv-x="374" 
d="M361 -156h-347c-8 0 -14 6 -14 14v128c0 8 6 14 14 14h347c8 0 14 -6 14 -14v-128c0 -8 -6 -14 -14 -14z" />
    <glyph glyph-name="rests.1" unicode="&#xe001;" horiz-adv-x="374" 
d="M361 0h-347c-8 0 -14 6 -14 14v128c0 8 6 14 14 14h347c8 0 14 -6 14 -14v-128c0 -8 -6 -14 -14 -14z" />
    <glyph glyph-name="rests.0o" unicode="&#xe002;" horiz-adv-x="374" 
d="M361 -156h-347c-8 0 -14 6 -14 14v110h-124c-18 0 -32 14 -32 32s14 32 32 32h623c18 0 32 -14 32 -32s-14 -32 -32 -32h-124v-110c0 -8 -6 -14 -14 -14z" />
    <glyph glyph-name="rests.1o" unicode="&#xe003;" horiz-adv-x="374" 
d="M499 -32h-623c-18 0 -32 14 -32 32s14 32 32 32h124v110c0 8 6 14 14 14h347c8 0 14 -6 14 -14v-110h124c18 0 32 -14 32 -32s-14 -32 -32 -32z" />
    <glyph glyph-name="rests.M3" unicode="&#xe004;" horiz-adv-x="449" 
d="M436 -250h-122c-8 0 -14 6 -14 14v472c0 8 6 14 14 14h122c8 0 14 -6 14 -14v-472c0 -8 -6 -14 -14 -14zM136 -250h-122c-8 0 -14 6 -14 14v472c0 8 6 14 14 14h122c8 0 14 -6 14 -14v-472c0 -8 -6 -14 -14 -14z" />
    <glyph glyph-name="rests.M2" unicode="&#xe005;" horiz-adv-x="149" 
d="M136 -250h-122c-8 0 -14 6 -14 14v472c0 8 6 14 14 14h122c8 0 14 -6 14 -14v-472c0 -8 -6 -14 -14 -14z" />
    <glyph glyph-name="rests.M1" unicode="&#xe006;" horiz-adv-x="149" 
d="M136 0h-122c-8 0 -14 6 -14 14v222c0 8 6 14 14 14h122c8 0 14 -6 14 -14v-222c0 -8 -6 -14 -14 -14z" />
    <glyph glyph-name="rests.M1o" unicode="&#xe007;" horiz-adv-x="149" 
d="M243 -32h-336c-18 0 -32 14 -32 32s14 32 32 32h93v186h-93c-18 0 -32 14 -32 32s14 32 32 32h336c18 0 32 -14 32 -32s-14 -32 -32 -32h-93v-186h93c18 0 32 -14 32 -32s-14 -32 -32 -32z" />
    <glyph glyph-name="rests.2" unicode="&#xe008;" horiz-adv-x="237" 
d="M-11 77c0 59 124 85 124 183c0 25 -9 50 -26 71l-29 34c-4 4 -5 9 -5 13c0 11 10 20 21 20c5 0 11 -2 15 -7l148 -177c8 -9 10 -17 10 -26c0 -59 -123 -85 -123 -183c0 -25 9 -50 26 -71l77 -91c4 -4 5 -9 5 -13c0 -11 -10 -20 -21 -20c-13 0 -35 38 -99 38
c-28 0 -56 -7 -56 -64c0 -60 29 -93 29 -97c0 -5 -5 -10 -10 -10c-14 0 -100 131 -100 203c0 40 25 43 50 43c28 0 65 -8 99 -20l-124 148c-8 9 -11 17 -11 26z" />
    <glyph glyph-name="rests.2classical" unicode="&#xe009;" horiz-adv-x="249" 
d="M18 172c20 0 49 -61 73 -61c43 0 6 94 88 94c48 0 74 -36 74 -72c0 -39 -29 -79 -86 -79c-34 0 -67 10 -99 21l119 -325c-10 -8 -23 -13 -35 -13s-25 5 -35 13l-117 411c3 8 11 11 18 11z" />
    <glyph glyph-name="rests.2z" unicode="&#xe00a;" horiz-adv-x="281" 
d="M19 205c31 0 73 -94 102 -94c43 0 7 94 89 94c48 0 73 -36 73 -72c0 -39 -29 -79 -86 -79c-25 0 -49 8 -72 16l152 -237c3 -3 5 -9 5 -14c0 -11 -7 -24 -19 -24c-31 0 -74 94 -103 94c-43 0 -6 -94 -88 -94c-48 0 -74 36 -74 72c0 39 29 79 86 79c25 0 49 -8 72 -16
l-152 237c-3 3 -4 9 -4 14c0 11 7 24 19 24z" />
    <glyph glyph-name="rests.3" unicode="&#xe00b;" horiz-adv-x="249" 
d="M159 111c24 0 53 61 73 61c7 0 15 -3 18 -11l-117 -411c-10 -8 -23 -13 -35 -13s-25 5 -35 13l119 325c-32 -11 -65 -21 -99 -21c-57 0 -86 40 -86 79c0 36 26 72 74 72c82 0 45 -94 88 -94z" />
    <glyph glyph-name="rests.4" unicode="&#xe00c;" horiz-adv-x="299" 
d="M125 205c82 0 46 -94 89 -94c20 0 50 62 72 62c5 0 10 -3 14 -12l-173 -661c-10 -8 -23 -13 -35 -13s-25 5 -35 13l102 325c-32 -11 -66 -21 -100 -21c-57 0 -85 40 -85 79c0 36 25 72 73 72c82 0 46 -94 89 -94c15 0 49 49 54 64l47 150c-32 -11 -66 -21 -100 -21
c-57 0 -85 40 -85 79c0 36 25 72 73 72z" />
    <glyph glyph-name="rests.5" unicode="&#xe00d;" horiz-adv-x="324" 
d="M154 455c82 0 46 -94 89 -94c22 0 40 61 65 61c6 0 14 -3 17 -11l-211 -911c-10 -8 -23 -13 -35 -13s-25 5 -35 13l88 326c-33 -12 -68 -22 -103 -22c-57 0 -85 40 -85 79c0 36 25 72 73 72c82 0 46 -94 89 -94c15 0 49 51 53 67l39 148c-32 -12 -66 -22 -100 -22
c-57 0 -85 40 -85 79c0 36 25 72 73 72c82 0 45 -94 88 -94c15 0 47 49 51 64l40 150c-32 -11 -64 -21 -98 -21c-57 0 -86 40 -86 79c0 36 25 72 73 72z" />
    <glyph glyph-name="rests.6" unicode="&#xe00e;" horiz-adv-x="349" 
d="M184 455c82 0 45 -94 88 -94c21 0 35 62 61 62c7 0 14 -4 17 -12l-230 -1161c-10 -8 -23 -13 -35 -13s-25 5 -35 13l74 327c-34 -12 -70 -23 -106 -23c-57 0 -86 40 -86 79c0 36 25 72 73 72c82 0 46 -94 89 -94c16 0 49 52 53 69l33 146c-33 -12 -68 -22 -103 -22
c-57 0 -85 40 -85 79c0 36 25 72 73 72c82 0 45 -94 88 -94c15 0 46 50 50 66l34 148c-32 -12 -66 -21 -100 -21c-57 0 -86 40 -86 79c0 36 25 72 73 72c82 0 46 -94 89 -94c14 0 43 49 46 64l34 150c-31 -11 -64 -21 -97 -21c-57 0 -85 40 -85 79c0 36 25 72 73 72z" />
    <glyph glyph-name="rests.7" unicode="&#xe00f;" horiz-adv-x="374" 
d="M213 705c82 0 46 -94 89 -94c20 0 28 62 55 62c7 0 15 -4 18 -12l-233 -1411c-10 -8 -23 -13 -35 -13s-25 5 -35 13l62 328c-36 -13 -72 -24 -110 -24c-57 0 -86 40 -86 79c0 36 25 72 73 72c82 0 46 -94 89 -94c16 0 51 53 54 71l27 145c-34 -12 -70 -23 -107 -23
c-57 0 -85 40 -85 79c0 36 25 72 73 72c82 0 45 -94 88 -94c16 0 47 52 50 69l28 146c-33 -12 -68 -22 -103 -22c-57 0 -86 40 -86 79c0 36 25 72 73 72c82 0 46 -94 89 -94c15 0 43 50 46 66l27 148c-32 -11 -65 -21 -99 -21c-57 0 -85 40 -85 79c0 36 25 72 73 72
c82 0 45 -94 88 -94c14 0 39 49 42 64l28 150c-31 -11 -62 -21 -95 -21c-57 0 -86 40 -86 79c0 36 25 72 73 72z" />
    <glyph glyph-name="rests.8" unicode="&#xe010;" horiz-adv-x="374" 
d="M217 705c82 0 46 -94 89 -94c19 0 24 62 51 62c1 0 13 0 18 -12l-226 -1661c-10 -8 -23 -13 -35 -13s-25 5 -35 13l51 329c-37 -13 -76 -25 -115 -25c-57 0 -85 40 -85 79c0 36 25 72 73 72c82 0 46 -94 89 -94c17 0 51 56 54 74l23 143c-36 -13 -73 -24 -111 -24
c-57 0 -85 40 -85 79c0 36 25 72 73 72c82 0 46 -94 89 -94c16 0 47 55 50 72l22 144c-34 -12 -70 -23 -106 -23c-57 0 -85 40 -85 79c0 36 25 72 73 72c82 0 45 -94 88 -94c15 0 43 52 46 69l23 146c-33 -12 -67 -22 -102 -22c-57 0 -86 40 -86 79c0 36 26 72 74 72
c82 0 45 -94 88 -94c14 0 40 51 42 67l23 147c-32 -11 -64 -21 -98 -21c-57 0 -86 40 -86 79c0 36 26 72 74 72c82 0 45 -94 88 -94c14 0 35 49 37 64l24 149c-30 -11 -62 -20 -94 -20c-57 0 -86 40 -86 79c0 36 25 72 73 72z" />
    <glyph glyph-name="rests.9" unicode="&#xe011;" horiz-adv-x="374" 
d="M221 955c82 0 46 -94 89 -94c18 0 19 62 47 62c8 0 15 -5 18 -12l-212 -1911c-10 -8 -23 -13 -35 -13s-25 5 -35 13l42 329c-38 -14 -77 -25 -118 -25c-57 0 -86 40 -86 79c0 36 25 72 73 72c82 0 46 -94 89 -94c17 0 54 58 56 77l18 140c-37 -13 -75 -24 -114 -24
c-57 0 -86 40 -86 79c0 36 25 72 73 72c82 0 46 -94 89 -94c17 0 50 56 52 74l18 143c-35 -13 -72 -24 -110 -24c-57 0 -86 40 -86 79c0 36 26 72 74 72c82 0 45 -94 88 -94c16 0 45 54 47 71l18 145c-34 -12 -69 -23 -105 -23c-57 0 -85 40 -85 79c0 36 25 72 73 72
c82 0 45 -94 88 -94c15 0 41 53 43 69l18 146c-33 -12 -66 -22 -101 -22c-57 0 -85 40 -85 79c0 36 25 72 73 72c82 0 46 -94 89 -94c14 0 35 51 37 67l19 147c-31 -11 -63 -21 -96 -21c-57 0 -86 40 -86 79c0 36 25 72 73 72c82 0 46 -94 89 -94c13 0 31 49 33 64l19 149
c-30 -11 -60 -20 -92 -20c-57 0 -86 40 -86 79c0 36 25 72 73 72z" />
    <glyph glyph-name="rests.10" unicode="&#xe012;" horiz-adv-x="374" 
d="M356 923c9 0 16 -5 19 -12l-192 -2161c-10 -8 -23 -13 -35 -13s-25 5 -35 13l34 330c-40 -14 -80 -26 -122 -26c-57 0 -86 40 -86 79c0 36 25 72 73 72c82 0 46 -94 89 -94c18 0 55 59 57 79l15 139c-38 -14 -77 -25 -118 -25c-57 0 -86 40 -86 79c0 36 26 72 74 72
c82 0 45 -94 88 -94c17 0 51 58 53 77l15 140c-37 -13 -75 -24 -114 -24c-57 0 -85 40 -85 79c0 36 25 72 73 72c82 0 46 -94 89 -94c16 0 46 56 48 74l14 142c-35 -13 -71 -23 -108 -23c-57 0 -86 40 -86 79c0 36 26 72 74 72c82 0 45 -94 88 -94c15 0 41 54 43 71l15 144
c-34 -12 -68 -22 -104 -22c-57 0 -85 40 -85 79c0 36 25 72 73 72c82 0 46 -94 89 -94c15 0 36 53 38 69l15 145c-32 -11 -65 -21 -99 -21c-57 0 -86 40 -86 79c0 36 25 72 73 72c82 0 46 -94 89 -94c14 0 32 52 34 67l15 146c-31 -11 -63 -20 -95 -20c-57 0 -85 40 -85 79
c0 36 25 72 73 72c82 0 46 -94 89 -94c13 0 26 49 28 64l16 148c-29 -10 -59 -19 -90 -19c-57 0 -86 40 -86 79c0 36 25 72 73 72c82 0 46 -94 89 -94c18 0 13 62 42 62z" />
    <glyph glyph-name="accidentals.sharp" unicode="&#xe013;" horiz-adv-x="274" 
d="M0 114c0 12 7 22 18 26l37 15v151c0 12 10 22 22 22s22 -10 22 -22v-134l77 29v152c0 12 10 22 22 22s22 -10 22 -22v-134l16 6c3 1 8 2 11 2c15 0 28 -12 28 -28v-50c0 -12 -7 -23 -18 -27l-37 -14v-152l16 7c3 1 8 2 11 2c15 0 28 -13 28 -29v-50c0 -12 -7 -22 -18 -26
l-37 -15v-151c0 -12 -10 -22 -22 -22s-22 10 -22 22v134l-77 -29v-152c0 -12 -10 -22 -22 -22s-22 10 -22 22v134l-16 -6c-3 -1 -8 -2 -11 -2c-15 0 -28 12 -28 28v50c0 12 7 23 18 27l37 14v152l-16 -7c-3 -1 -8 -2 -11 -2c-15 0 -28 13 -28 29v50zM176 91l-77 -30v-152
l77 30v152z" />
    <glyph glyph-name="accidentals.sharp.figbass" unicode="&#x266f;" horiz-adv-x="274" 
d="M0 351c0 12 7 22 18 26l37 15v108c0 12 10 22 22 22s22 -10 22 -22v-91l77 29v109c0 12 10 22 22 22s22 -10 22 -22v-91l16 6c3 1 8 2 11 2c15 0 28 -12 28 -28v-51c0 -12 -7 -22 -18 -26l-37 -14v-126l16 7c3 1 8 2 11 2c15 0 28 -13 28 -29v-50c0 -12 -7 -22 -18 -26
l-37 -15v-108c0 -12 -10 -22 -22 -22s-22 10 -22 22v91l-77 -29v-109c0 -12 -10 -22 -22 -22s-22 10 -22 22v91l-16 -6c-3 -1 -8 -2 -11 -2c-15 0 -28 12 -28 28v51c0 12 7 22 18 26l37 14v126l-16 -7c-3 -1 -8 -2 -11 -2c-15 0 -28 13 -28 29v50zM176 327l-77 -29v-125
l77 29v125z" />
    <glyph glyph-name="accidentals.sharp.arrowup" unicode="&#xe014;" horiz-adv-x="274" 
d="M315 404c-11 0 -61 41 -83 41c-8 0 -12 -5 -12 -18v-208l16 6c3 1 8 2 11 2c15 0 28 -12 28 -28v-50c0 -12 -7 -23 -18 -27l-37 -14v-152l16 7c3 1 8 2 11 2c15 0 28 -13 28 -29v-50c0 -12 -7 -22 -18 -26l-37 -15v-151c0 -12 -10 -22 -22 -22s-22 10 -22 22v134l-77 -29
v-152c0 -12 -10 -22 -22 -22s-22 10 -22 22v134l-16 -6c-3 -1 -8 -2 -11 -2c-15 0 -28 12 -28 28v50c0 12 7 23 18 27l37 14v152l-16 -7c-3 -1 -8 -2 -11 -2c-15 0 -28 13 -28 29v50c0 12 7 22 18 26l37 15v151c0 12 10 22 22 22s22 -10 22 -22v-134l77 29v226
c0 13 -5 18 -13 18c-22 0 -72 -41 -83 -41c-6 0 -11 6 -11 12c0 2 0 4 2 6c82 117 110 244 127 244s44 -127 126 -244c2 -2 2 -4 2 -6c0 -6 -5 -12 -11 -12zM176 91l-77 -30v-152l77 30v152z" />
    <glyph glyph-name="accidentals.sharp.arrowdown" unicode="&#xe015;" horiz-adv-x="274" 
d="M-40 -404c11 0 61 -41 83 -41c8 0 12 5 12 18v208l-16 -6c-3 -1 -8 -2 -11 -2c-15 0 -28 12 -28 28v50c0 12 7 23 18 27l37 14v152l-16 -7c-3 -1 -8 -2 -11 -2c-15 0 -28 13 -28 29v50c0 12 7 22 18 26l37 15v151c0 12 10 22 22 22s22 -10 22 -22v-134l77 29v152
c0 12 10 22 22 22s22 -10 22 -22v-134l16 6c3 1 8 2 11 2c15 0 28 -12 28 -28v-50c0 -12 -7 -23 -18 -27l-37 -14v-152l16 7c3 1 8 2 11 2c15 0 28 -13 28 -29v-50c0 -12 -7 -22 -18 -26l-37 -15v-151c0 -12 -10 -22 -22 -22s-22 10 -22 22v134l-77 -29v-152v-74
c0 -13 5 -18 13 -18c22 0 72 41 83 41c6 0 11 -6 11 -12c0 -2 0 -4 -2 -6c-82 -117 -110 -244 -127 -244s-44 127 -126 244c-2 2 -2 4 -2 6c0 6 5 12 11 12zM176 91l-77 -30v-152l77 30v152z" />
    <glyph glyph-name="accidentals.sharp.arrowboth" unicode="&#xe016;" horiz-adv-x="274" 
d="M-40 -404c11 0 61 -41 83 -41c8 0 12 5 12 18v208l-16 -6c-3 -1 -8 -2 -11 -2c-15 0 -28 12 -28 28v50c0 12 7 23 18 27l37 14v152l-16 -7c-3 -1 -8 -2 -11 -2c-15 0 -28 13 -28 29v50c0 12 7 22 18 26l37 15v151c0 12 10 22 22 22s22 -10 22 -22v-134l77 29v226
c0 13 -5 18 -13 18c-22 0 -72 -41 -83 -41c-6 0 -11 6 -11 12c0 2 0 4 2 6c82 117 110 244 127 244s44 -127 126 -244c2 -2 2 -4 2 -6c0 -6 -5 -12 -11 -12c-11 0 -61 41 -83 41c-8 0 -12 -5 -12 -18v-208l16 6c3 1 8 2 11 2c15 0 28 -12 28 -28v-50c0 -12 -7 -23 -18 -27
l-37 -14v-152l16 7c3 1 8 2 11 2c15 0 28 -13 28 -29v-50c0 -12 -7 -22 -18 -26l-37 -15v-151c0 -12 -10 -22 -22 -22s-22 10 -22 22v134l-77 -29v-152v-74c0 -13 5 -18 13 -18c22 0 72 41 83 41c6 0 11 -6 11 -12c0 -2 0 -4 -2 -6c-82 -117 -110 -244 -127 -244
s-44 127 -126 244c-2 2 -2 4 -2 6c0 6 5 12 11 12zM176 91l-77 -30v-152l77 30v152z" />
    <glyph glyph-name="accidentals.sharp.slashslash.stem" unicode="&#xe017;" horiz-adv-x="174" 
d="M87 -332c-12 0 -22 10 -22 22v107l-22 -14c-5 -3 -10 -4 -15 -4c-15 0 -28 11 -28 28v51c0 10 6 19 14 24l51 31v146l-22 -13c-5 -3 -10 -4 -15 -4c-15 0 -28 11 -28 28v50c0 10 6 19 14 24l51 32v134c0 12 10 22 22 22s23 -10 23 -22v-107l22 14c5 3 10 4 15 4
c15 0 28 -11 28 -28v-51c0 -10 -6 -19 -14 -24l-51 -31v-146l22 13c5 3 10 4 15 4c15 0 28 -11 28 -28v-50c0 -10 -6 -19 -14 -24l-51 -32v-134c0 -12 -11 -22 -23 -22z" />
    <glyph glyph-name="accidentals.sharp.slashslashslash.stemstem" unicode="&#xe018;" horiz-adv-x="274" 
d="M198 -332c-12 0 -22 10 -22 22v128l-77 -27v-144c0 -12 -10 -22 -22 -22s-22 10 -22 22v128c-4 -1 -8 -2 -11 -2c-16 0 -28 14 -28 29v30c0 12 8 22 19 26l20 8v53l-17 -6c-3 -1 -7 -2 -10 -2c-15 0 -28 13 -28 29v42c0 12 8 22 19 26l36 14v53c-4 -1 -8 -2 -11 -2
c-16 0 -28 14 -28 29v30c0 12 8 22 19 26l20 8v144c0 12 10 22 22 22s22 -10 22 -22v-128l77 27v144c0 12 10 22 22 22s22 -10 22 -22v-128c4 1 8 2 11 2c16 0 27 -14 27 -29v-30c0 -12 -7 -22 -18 -26l-20 -8v-53l17 6c3 1 7 2 10 2c15 0 28 -13 28 -29v-42
c0 -12 -8 -22 -19 -26l-36 -14v-53c4 1 8 2 11 2c16 0 27 -14 27 -29v-30c0 -12 -7 -22 -18 -26l-20 -8v-144c0 -12 -10 -22 -22 -22zM99 -65v-53l77 27v54zM99 37l77 28v53l-77 -27v-54z" />
    <glyph glyph-name="accidentals.sharp.slashslashslash.stem" unicode="&#xe019;" horiz-adv-x="237" 
d="M119 -332c-12 0 -22 10 -22 22v104l-33 -15c-4 -2 -8 -3 -12 -3c-15 0 -28 12 -28 28v31c0 11 6 20 16 25l57 26v47l-57 -26c-4 -2 -8 -3 -12 -3c-15 0 -28 13 -28 29v52c0 11 7 20 17 25l80 37v47l-33 -15c-4 -2 -8 -3 -12 -3c-15 0 -28 12 -28 28v31c0 11 6 20 16 25
l57 26v124c0 12 10 22 22 22s22 -10 22 -22v-104l33 15c4 2 7 3 11 3c15 0 29 -12 29 -28v-31c0 -11 -7 -20 -17 -25l-56 -26v-47l56 26c4 2 8 3 12 3c15 0 28 -13 28 -29v-52c0 -11 -6 -20 -16 -25l-80 -37v-47l33 15c4 2 7 3 11 3c15 0 29 -12 29 -28v-31
c0 -11 -7 -20 -17 -25l-56 -26v-124c0 -12 -10 -22 -22 -22z" />
    <glyph glyph-name="accidentals.sharp.slash.stem" unicode="&#xe01a;" horiz-adv-x="237" 
d="M119 -332c-12 0 -22 10 -22 22v244l-57 -26c-4 -2 -8 -2 -12 -2c-15 0 -28 12 -28 28v50c0 11 7 21 17 26l80 36v264c0 12 10 22 22 22s22 -10 22 -22v-244l57 26c4 2 7 2 11 2c15 0 28 -12 28 -28v-50c0 -11 -6 -21 -16 -26l-80 -36v-264c0 -12 -10 -22 -22 -22z" />
    <glyph glyph-name="accidentals.sharp.slashslash.stemstemstem" unicode="&#xe01b;" horiz-adv-x="400" 
d="M200 -345c-12 0 -22 10 -22 22v131l-68 -18v-143c0 -12 -10 -22 -22 -22s-23 10 -23 22v131l-29 -8c-2 -1 -6 -1 -8 -1c-15 0 -28 13 -28 29v50c0 13 9 24 21 27l44 12v154l-29 -8c-2 -1 -6 -1 -8 -1c-15 0 -28 12 -28 28v51c0 13 9 24 21 27l44 12v143c0 12 11 22 23 22
s22 -10 22 -22v-131l68 18v143c0 12 10 22 22 22s22 -10 22 -22v-131l68 18v143c0 12 10 22 22 22s23 -10 23 -22v-131l29 8c2 1 6 1 8 1c15 0 28 -13 28 -29v-50c0 -13 -9 -24 -21 -27l-44 -12v-154l29 8c2 1 6 1 8 1c15 0 28 -12 28 -28v-51c0 -13 -9 -24 -21 -27l-44 -12
v-143c0 -12 -11 -22 -23 -22s-22 10 -22 22v131l-68 -18v-143c0 -12 -10 -22 -22 -22zM110 53v-154l68 18v154zM290 101l-68 -18v-154l68 18v154z" />
    <glyph glyph-name="accidentals.doublesharp" unicode="&#xe01c;" horiz-adv-x="249" 
d="M156 0c22 -22 55 -27 86 -27c8 0 14 -6 14 -14l8 -84v-1c0 -7 -6 -13 -13 -13h-1l-84 8c-8 1 -14 6 -14 14c0 31 -5 64 -27 86c-22 -22 -27 -55 -27 -86c0 -8 -6 -13 -14 -14l-84 -8h-1c-7 0 -13 6 -13 13v1l8 84c0 8 6 14 14 14c31 0 64 5 86 27c-22 22 -55 27 -86 27
c-8 0 -14 6 -14 14l-8 84v1c0 7 6 13 13 13h1l84 -8c8 -1 14 -6 14 -14c0 -31 5 -64 27 -86c22 22 27 55 27 86c0 8 6 13 14 14l84 8h1c7 0 13 -6 13 -13v-1l-8 -84c0 -8 -6 -14 -14 -14c-31 0 -64 -5 -86 -27z" />
    <glyph glyph-name="accidentals.doublesharp.figbass" unicode="&#x1d12a;" horiz-adv-x="274" 
d="M168 250c26 -26 62 -39 99 -39c8 0 14 -6 14 -14l8 -85v-1c0 -7 -6 -13 -13 -13h-1l-84 9c-8 1 -14 6 -14 14c0 37 -14 72 -40 98c-26 -26 -39 -61 -39 -98c0 -8 -6 -13 -14 -14l-84 -9h-1c-7 0 -13 6 -13 13v1l8 85c0 8 6 14 14 14c37 0 73 13 99 39
c-26 26 -62 39 -99 39c-8 0 -14 6 -14 14l-8 84v2c0 7 6 13 13 13h1l84 -9c8 -1 14 -6 14 -14c0 -37 13 -72 39 -98c26 26 40 61 40 98c0 8 6 13 14 14l84 9h1c7 0 13 -6 13 -13v-2l-8 -84c0 -8 -6 -14 -14 -14c-37 0 -73 -13 -99 -39z" />
    <glyph glyph-name="accidentals.natural" unicode="&#xe01d;" horiz-adv-x="166" 
d="M-8 375c8 5 18 7 27 7s20 -2 28 -7l-3 -196l99 24h4c11 0 20 -8 20 -19l8 -559c-8 -5 -19 -7 -28 -7s-19 2 -27 7l3 196l-99 -24h-5c-11 0 -19 8 -19 19zM127 109l-85 -20l-2 -198l84 20z" />
    <glyph glyph-name="accidentals.natural.figbass" unicode="&#x266e;" horiz-adv-x="274" 
d="M33 547c8 5 18 7 27 7s20 -2 28 -7l-3 -148l126 26h4c11 0 19 -8 19 -19l8 -453c-8 -5 -18 -7 -27 -7s-20 2 -28 7l3 148l-125 -26h-5c-11 0 -19 8 -19 19zM194 332l-110 -23l-3 -141l110 23z" />
    <glyph glyph-name="accidentals.natural.arrowup" unicode="&#xe01e;" horiz-adv-x="166" 
d="M138 404c-11 0 -61 42 -83 42c-8 0 -12 -5 -12 -18c-1 -83 -1 -167 -2 -250l102 25h4c11 0 20 -8 20 -19l8 -559c-8 -5 -19 -7 -28 -7s-19 2 -27 7l3 196l-99 -24h-5c-11 0 -19 8 -19 19l-4 559l-1 53c0 13 -4 18 -12 18c-22 0 -72 -42 -83 -42c-7 0 -12 6 -12 12
c0 3 49 63 122 244c2 4 5 7 9 7c17 0 44 -123 129 -244c2 -2 2 -5 2 -7c0 -6 -5 -12 -12 -12zM127 109l-87 -21l-1 -197l85 21z" />
    <glyph glyph-name="accidentals.natural.arrowdown" unicode="&#xe01f;" horiz-adv-x="222" 
d="M57 -404c11 0 60 -42 82 -42c8 0 13 5 13 18v53l1 197l-101 -25h-5c-11 0 -19 8 -19 19l-8 559c8 5 18 7 27 7s20 -2 28 -7l-3 -196l99 24h4c11 0 20 -8 20 -19l4 -559v-53c0 -13 5 -18 13 -18c22 0 71 42 82 42c7 0 12 -6 12 -12c0 -3 -48 -63 -121 -244
c-2 -4 -6 -7 -10 -7c-17 0 -43 123 -128 244c-2 2 -3 5 -3 7c0 6 6 12 13 12zM156 109l-86 -21l-3 -197l87 21z" />
    <glyph glyph-name="accidentals.natural.arrowboth" unicode="&#xe020;" horiz-adv-x="222" 
d="M57 -404c11 0 60 -42 82 -42c8 0 13 5 13 18v53l1 197l-101 -25h-5c-11 0 -19 8 -19 19l-4 559l-1 53c0 13 -4 18 -12 18c-22 0 -72 -42 -83 -42c-7 0 -12 6 -12 12c0 3 49 63 122 244c2 4 5 7 9 7c17 0 44 -123 129 -244c2 -2 2 -5 2 -7c0 -6 -5 -12 -12 -12
c-11 0 -61 42 -83 42c-8 0 -12 -5 -12 -18l-1 -53l-1 -197l102 25h4c11 0 20 -8 20 -19l4 -559v-53c0 -13 5 -18 13 -18c22 0 71 42 82 42c7 0 12 -6 12 -12c0 -3 -48 -63 -121 -244c-2 -4 -6 -7 -10 -7c-17 0 -43 123 -128 244c-2 2 -3 5 -3 7c0 6 6 12 13 12zM156 109
l-88 -21l-1 -197l87 21z" />
    <glyph glyph-name="accidentals.flat" unicode="&#xe021;" horiz-adv-x="200" 
d="M33 35l-2 -60v-11c0 -21 2 -43 5 -64c42 38 87 81 87 138c0 32 -13 63 -41 63c-31 0 -48 -32 -49 -66zM32 446l-9 -337c25 26 59 40 95 40c50 0 82 -51 82 -105c0 -77 -80 -117 -137 -169c-18 -17 -26 -48 -52 -48c-16 0 -28 15 -28 32l-15 587c10 6 21 8 32 8
s22 -2 32 -8z" />
    <glyph glyph-name="accidentals.flat.figbass" unicode="&#x266d;" horiz-adv-x="274" 
d="M90 164l-2 -63v-11c0 -21 1 -42 4 -62c40 38 80 80 80 135c0 31 -10 64 -37 64c-29 0 -44 -31 -45 -63zM89 547l-9 -312c23 25 56 40 91 40c49 0 79 -51 79 -105c0 -76 -77 -117 -132 -169c-18 -17 -25 -48 -50 -48c-20 0 -28 24 -28 47l-15 547c10 6 21 8 32 8
s22 -2 32 -8z" />
    <glyph glyph-name="accidentals.flat.arrowup" unicode="&#xe022;" horiz-adv-x="200" 
d="M33 35l-2 -60v-11c0 -21 2 -43 5 -64c42 38 87 80 87 137c0 32 -13 64 -41 64c-31 0 -48 -32 -49 -66zM121 404c-12 0 -60 43 -82 43c-8 0 -13 -5 -13 -18l-1 -54l-4 -266c26 26 61 40 97 40c50 0 82 -51 82 -105c0 -77 -80 -117 -137 -169c-18 -17 -26 -48 -52 -48
c-16 0 -28 15 -28 32l-8 516l-1 54c0 13 -5 18 -13 18c-22 0 -70 -43 -82 -43c-7 0 -13 6 -13 13c0 13 47 52 124 243c2 5 6 7 10 7s8 -2 10 -7c33 -82 71 -162 122 -235c2 -2 2 -6 2 -8c0 -7 -6 -13 -13 -13z" />
    <glyph glyph-name="accidentals.flat.arrowdown" unicode="&#xe023;" horiz-adv-x="200" 
d="M33 35l-2 -60v-11c0 -21 2 -43 5 -64c42 38 87 81 87 138c0 32 -13 63 -41 63c-31 0 -48 -32 -49 -66zM-112 -279c9 0 59 -40 82 -40c8 0 13 5 13 18v160l-15 587c10 6 21 8 32 8s22 -2 32 -8l-9 -337c25 26 59 40 95 40c50 0 82 -51 82 -105c0 -111 -179 -160 -179 -233
v-112c0 -13 5 -18 13 -18c23 0 73 40 82 40c5 0 10 -5 10 -10c0 -2 -1 -4 -2 -6c-76 -109 -107 -247 -124 -247c-11 0 -47 143 -120 247c-1 2 -2 4 -2 6c0 5 5 10 10 10z" />
    <glyph glyph-name="accidentals.flat.arrowboth" unicode="&#xe024;" horiz-adv-x="200" 
d="M33 35l-2 -60v-11c0 -21 2 -43 5 -64c42 38 87 80 87 137c0 32 -13 64 -41 64c-31 0 -48 -32 -49 -66zM121 404c-12 0 -60 43 -82 43c-8 0 -13 -5 -13 -18l-1 -54l-4 -266c26 26 61 40 97 40c50 0 82 -51 82 -105c0 -111 -179 -160 -179 -233v-112c0 -13 5 -18 13 -18
c23 0 73 40 82 40c5 0 10 -5 10 -10c0 -2 -1 -4 -2 -6c-76 -109 -107 -247 -124 -247c-11 0 -47 143 -120 247c-1 2 -2 4 -2 6c0 5 5 10 10 10c9 0 59 -40 82 -40c8 0 13 5 13 18v160l-9 570c0 13 -5 18 -13 18c-22 0 -70 -43 -82 -43c-7 0 -13 6 -13 13c0 13 47 52 124 243
c2 5 6 7 10 7s8 -2 10 -7c33 -82 71 -162 122 -235c2 -2 2 -6 2 -8c0 -7 -6 -13 -13 -13z" />
    <glyph glyph-name="accidentals.flat.slash" unicode="&#xe025;" horiz-adv-x="200" 
d="M33 35l-2 -60v-11c0 -21 2 -43 5 -64c42 38 87 81 87 138c0 32 -13 63 -41 63c-31 0 -48 -32 -49 -66zM-26 210l-63 -31c-4 -2 -8 -3 -11 -3c-13 0 -24 12 -24 25c0 8 4 15 13 20l84 42l-5 183c10 6 21 8 32 8s22 -2 32 -8l-4 -155l61 30c4 2 8 3 11 3
c13 0 24 -12 24 -25c0 -8 -4 -15 -13 -20l-85 -42l-3 -128c25 26 59 40 95 40c50 0 82 -51 82 -105c0 -77 -80 -117 -137 -169c-18 -17 -26 -48 -52 -48c-16 0 -28 15 -28 32z" />
    <glyph glyph-name="accidentals.flat.slashslash" unicode="&#xe026;" horiz-adv-x="200" 
d="M33 35l-2 -60v-11c0 -21 2 -43 5 -64c42 38 87 81 87 138c0 32 -13 63 -41 63c-31 0 -48 -32 -49 -66zM-24 149l-65 -33c-4 -2 -8 -3 -11 -3c-13 0 -24 13 -24 26c0 8 4 15 13 20l85 42l-1 71l-62 -31c-4 -2 -8 -3 -11 -3c-13 0 -24 13 -24 26c0 8 4 15 13 20l82 41
l-3 121c10 6 21 8 32 8s22 -2 32 -8l-3 -92l60 30c4 2 8 3 11 3c13 0 24 -13 24 -26c0 -8 -4 -15 -13 -20l-83 -41l-2 -73l63 32c4 2 8 3 11 3c13 0 24 -13 24 -26c0 -8 -4 -15 -13 -20l-86 -43l-2 -64c25 26 59 40 95 40c50 0 82 -51 82 -105c0 -77 -80 -117 -137 -169
c-18 -17 -26 -48 -52 -48c-16 0 -28 15 -28 32z" />
    <glyph glyph-name="accidentals.mirroredflat.flat" unicode="&#xe027;" horiz-adv-x="399" 
d="M211 -173h-22c-26 0 -34 31 -52 48c-57 52 -137 92 -137 169c0 54 32 105 82 105c36 0 70 -14 95 -40l-9 337c10 6 21 8 32 8s22 -2 32 -8l-9 -337c25 26 59 40 95 40c50 0 82 -51 82 -105c0 -77 -80 -117 -137 -169c-18 -17 -26 -48 -52 -48zM167 35
c-1 34 -18 66 -49 66c-28 0 -41 -32 -41 -64c0 -57 45 -99 87 -137c3 21 5 43 5 64v11zM233 35l-2 -60v-11c0 -21 2 -43 5 -64c42 38 87 80 87 137c0 32 -13 64 -41 64c-31 0 -48 -32 -49 -66z" />
    <glyph glyph-name="accidentals.mirroredflat" unicode="&#xe028;" horiz-adv-x="200" 
d="M129 35c-1 34 -18 66 -49 66c-28 0 -41 -31 -41 -63c0 -57 45 -100 87 -138c3 21 5 43 5 64v11zM130 446c10 6 21 8 32 8s21 -2 31 -8l-14 -587c0 -17 -12 -32 -28 -32c-26 0 -34 31 -52 48c-57 52 -137 92 -137 169c0 54 31 105 81 105c36 0 71 -14 96 -40z" />
    <glyph glyph-name="accidentals.mirroredflat.backslash" unicode="&#xe029;" horiz-adv-x="200" 
d="M67 35c-1 34 -18 66 -49 66c-28 0 -41 -31 -41 -63c0 -57 45 -100 87 -138c3 21 5 43 5 64v11zM125 184l-8 -325c0 -17 -12 -32 -28 -32c-26 0 -34 31 -52 48c-57 52 -137 92 -137 169c0 54 32 105 82 105c36 0 70 -14 95 -40l-3 100l-85 43c-9 5 -13 12 -13 20
c0 13 11 25 24 25c3 0 7 -1 11 -3l62 -31l-5 183c10 6 21 8 32 8s22 -2 32 -8l-6 -210l85 -42c9 -5 13 -12 13 -20c0 -13 -11 -25 -24 -25c-3 0 -7 1 -11 3z" />
    <glyph glyph-name="accidentals.flatflat" unicode="&#xe02a;" horiz-adv-x="362" 
d="M195 35l-1 -60c0 -4 -1 -7 -1 -11c0 -21 2 -43 5 -64c41 38 81 81 81 137c0 31 -11 64 -38 64c-30 0 -45 -33 -46 -66zM21 35l-1 -60v-11c0 -23 2 -46 5 -68c37 39 67 88 67 142c0 30 -6 63 -32 63c-28 0 -38 -34 -39 -66zM32 446l-9 -337c16 25 43 40 73 40
c16 0 31 -5 43 -15l-8 312c10 6 20 8 31 8s22 -2 32 -8l-8 -337c24 25 57 40 92 40c51 0 84 -50 84 -104c0 -77 -80 -118 -137 -170c-18 -17 -26 -48 -52 -48c-16 0 -28 15 -28 32l-2 104c-25 -31 -59 -58 -87 -88c-16 -17 -21 -48 -45 -48c-16 0 -28 15 -28 32l-15 587
c10 6 21 8 32 8s22 -2 32 -8z" />
    <glyph glyph-name="accidentals.flatflat.figbass" unicode="&#x1d12b;" horiz-adv-x="412" 
d="M239 164l-2 -63v-11c0 -22 2 -44 5 -65c43 38 87 81 87 138c0 32 -12 64 -40 64c-30 0 -49 -30 -50 -63zM238 547l-8 -312c25 26 59 40 95 40c52 0 88 -49 88 -104c0 -79 -83 -118 -142 -170c-19 -17 -28 -48 -54 -48c-20 0 -28 24 -28 47l-2 100
c-25 -36 -66 -66 -98 -99c-16 -17 -22 -48 -47 -48c-20 0 -27 24 -27 47l-15 547c10 6 21 8 32 8s21 -2 31 -8l-8 -312c17 25 45 40 75 40c21 0 40 -9 53 -24l-8 296c10 6 20 8 31 8s22 -2 32 -8zM57 21c38 39 70 87 70 142c0 31 -7 64 -33 64c-35 0 -44 -59 -44 -113
c0 -47 7 -92 7 -93z" />
    <glyph glyph-name="accidentals.flatflat.slash" unicode="&#xe02b;" horiz-adv-x="362" 
d="M195 35l-1 -60c0 -4 -1 -7 -1 -11c0 -21 2 -43 5 -64c41 38 81 81 81 137c0 31 -11 64 -38 64c-30 0 -45 -33 -46 -66zM21 35l-1 -60v-11c0 -23 2 -46 5 -68c37 39 67 88 67 142c0 30 -6 63 -32 63c-28 0 -38 -34 -39 -66zM143 -37c-25 -31 -59 -58 -87 -88
c-16 -17 -21 -48 -45 -48c-16 0 -28 15 -28 32l-8 302l-92 -51c-5 -3 -11 -5 -16 -5c-18 0 -31 17 -31 34c0 10 4 20 16 26l122 68l-6 213c10 6 21 8 32 8s22 -2 32 -8l-5 -183l107 59l-3 124c10 6 20 8 31 8s22 -2 32 -8l-2 -92l64 36c5 3 11 5 16 5c18 0 32 -17 32 -34
c0 -10 -5 -20 -17 -26l-97 -54l-4 -172c24 25 57 40 92 40c51 0 84 -50 84 -104c0 -77 -80 -118 -137 -170c-18 -17 -26 -48 -52 -48c-16 0 -28 15 -28 32zM136 250l-111 -61l-2 -80c16 25 43 40 73 40c16 0 31 -5 43 -15z" />
    <glyph glyph-name="accidentals.sharp.sori" unicode="&#xe02c;" horiz-adv-x="330" 
d="M83 -337c-12 0 -22 10 -22 22v122l-49 -29c-4 -3 -9 -4 -14 -4c-16 0 -28 12 -28 28v26c0 10 5 19 13 24l78 47v202l-78 47c-8 5 -13 14 -13 24v9c0 16 12 28 28 28c5 0 10 -1 14 -4l49 -29v100c0 12 10 23 22 23s22 -11 22 -23v-127l76 -47v213c0 12 10 22 22 22
s22 -10 22 -22v-239l91 -56c8 -5 14 -14 14 -24v-9c0 -10 -6 -19 -14 -24l-91 -56v-183c0 -12 -10 -23 -22 -23s-22 11 -22 23v157l-76 -47v-149c0 -12 -10 -22 -22 -22zM105 -74l121 74l-121 74v-148z" />
    <glyph glyph-name="accidentals.flat.koron" unicode="&#xe02d;" horiz-adv-x="274" 
d="M-32 -446l8 321v267c0 14 11 25 24 25c4 0 9 -1 13 -4l250 -157c8 -5 12 -14 12 -22s-4 -16 -12 -20l-238 -136l7 -274c-10 -6 -21 -8 -32 -8s-22 2 -32 8zM24 -97l170 97l-170 106v-203z" />
    <glyph glyph-name="accidentals.rightparen" unicode="&#xe02e;" horiz-adv-x="153" 
d="M34 -250c0 19 63 57 63 250s-63 231 -63 250c0 9 8 16 16 16c5 0 10 -2 13 -7c54 -77 90 -165 90 -259s-36 -182 -90 -259c-3 -5 -8 -7 -13 -7c-8 0 -16 7 -16 16z" />
    <glyph glyph-name="accidentals.leftparen" unicode="&#xe02f;" horiz-adv-x="0" 
d="M-34 250c0 -19 -63 -57 -63 -250s63 -231 63 -250c0 -9 -8 -16 -16 -16c-5 0 -10 2 -13 7c-54 77 -90 165 -90 259s36 182 90 259c3 5 8 7 13 7c8 0 16 -7 16 -16z" />
    <glyph glyph-name="arrowheads.open.01" unicode="&#xe030;" horiz-adv-x="25" 
d="M-249 102c0 13 11 23 24 23c7 0 14 -2 19 -8c53 -58 128 -92 206 -92c17 0 25 -12 25 -25s-8 -25 -25 -25c-143 0 -202 -100 -224 -100c-14 0 -26 12 -26 26c0 20 60 73 123 99c-37 15 -122 66 -122 102z" />
    <glyph glyph-name="arrowheads.open.0M1" unicode="&#xe031;" horiz-adv-x="249" 
d="M224 -125c-22 0 -81 100 -224 100c-17 0 -25 12 -25 25s8 25 25 25c78 0 153 34 206 92c5 6 12 8 19 8c13 0 24 -10 24 -23c0 -36 -85 -87 -122 -102c63 -26 123 -79 123 -99c0 -14 -12 -26 -26 -26z" />
    <glyph glyph-name="arrowheads.open.11" unicode="&#xe032;" horiz-adv-x="124" 
d="M-102 -249c-13 0 -23 11 -23 24c0 7 2 14 8 19c58 53 92 128 92 206c0 17 12 25 25 25s25 -8 25 -25c0 -143 100 -202 100 -224c0 -14 -12 -26 -26 -26c-20 0 -73 60 -99 123c-15 -37 -66 -122 -102 -122z" />
    <glyph glyph-name="arrowheads.open.1M1" unicode="&#xe033;" horiz-adv-x="124" 
d="M125 224c0 -22 -100 -81 -100 -224c0 -17 -12 -25 -25 -25s-25 8 -25 25c0 78 -34 153 -92 206c-6 5 -8 12 -8 19c0 13 10 24 23 24c36 0 87 -85 102 -122c26 63 79 123 99 123c14 0 26 -12 26 -26z" />
    <glyph glyph-name="arrowheads.close.01" unicode="&#xe034;" horiz-adv-x="0" 
d="M-249 111c0 12 10 14 13 14c4 0 8 -2 11 -5c37 -45 167 -106 225 -106c9 0 14 -7 14 -14s-5 -14 -14 -14c-58 0 -188 -61 -225 -106c-3 -4 -7 -5 -11 -5c-7 0 -14 6 -14 14c0 6 16 47 16 111c0 66 -15 96 -15 111z" />
    <glyph glyph-name="arrowheads.close.0M1" unicode="&#xe035;" horiz-adv-x="249" 
d="M234 0c0 -64 16 -105 16 -111c0 -8 -7 -14 -14 -14c-4 0 -8 1 -11 5c-37 45 -167 106 -225 106c-9 0 -14 7 -14 14s5 14 14 14c58 0 188 61 225 106c3 3 7 5 11 5c0 0 13 -1 13 -14c0 -15 -15 -45 -15 -111z" />
    <glyph glyph-name="arrowheads.close.11" unicode="&#xe036;" horiz-adv-x="124" 
d="M-111 -249c-12 0 -14 10 -14 13c0 4 2 8 5 11c45 37 106 167 106 225c0 9 7 14 14 14s14 -5 14 -14c0 -58 61 -188 106 -225c4 -3 5 -7 5 -11c0 -7 -6 -14 -14 -14c-6 0 -47 16 -111 16c-66 0 -96 -15 -111 -15z" />
    <glyph glyph-name="arrowheads.close.1M1" unicode="&#xe037;" horiz-adv-x="124" 
d="M111 249c12 0 14 -10 14 -13c0 -4 -2 -8 -5 -11c-45 -37 -106 -167 -106 -225c0 -9 -7 -14 -14 -14s-14 5 -14 14c0 58 -61 188 -106 225c-4 3 -5 7 -5 11c0 7 6 14 14 14c6 0 47 -16 111 -16c66 0 96 15 111 15z" />
    <glyph glyph-name="dots.dot" unicode="&#xe038;" horiz-adv-x="109" 
d="M0 0c0 30 25 55 55 55s54 -25 54 -55s-24 -55 -54 -55s-55 25 -55 55z" />
    <glyph glyph-name="scripts.ufermata" unicode="&#xe039;" horiz-adv-x="336" 
d="M-73 50c0 41 32 73 73 73s73 -32 73 -73s-32 -74 -73 -74s-73 33 -73 74zM-337 -4c0 38 79 372 337 372s337 -334 337 -372c0 -12 -11 -19 -23 -19c-11 0 -22 6 -25 23c-26 145 -144 257 -289 257s-263 -112 -289 -257c-3 -17 -14 -23 -25 -23c-12 0 -23 7 -23 19z" />
    <glyph glyph-name="scripts.dfermata" unicode="&#xe03a;" horiz-adv-x="336" 
d="M-73 -50c0 41 32 74 73 74s73 -33 73 -74s-32 -73 -73 -73s-73 32 -73 73zM337 4c0 -38 -79 -372 -337 -372s-337 334 -337 372c0 12 11 19 23 19c11 0 22 -6 25 -23c26 -145 144 -257 289 -257s263 112 289 257c3 17 14 23 25 23c12 0 23 -7 23 -19z" />
    <glyph glyph-name="scripts.uhenzeshortfermata" unicode="&#xe03b;" horiz-adv-x="336" 
d="M-73 50c0 41 32 73 73 73s73 -32 73 -73s-32 -74 -73 -74s-73 33 -73 74zM-337 -4c0 38 79 372 337 372c13 0 24 -11 24 -24v-63c0 -13 -11 -24 -24 -24c-145 0 -263 -112 -289 -257c-3 -17 -14 -23 -25 -23c-12 0 -23 7 -23 19z" />
    <glyph glyph-name="scripts.dhenzeshortfermata" unicode="&#xe03c;" horiz-adv-x="336" 
d="M-73 -50c0 41 32 74 73 74s73 -33 73 -74s-32 -73 -73 -73s-73 32 -73 73zM0 -368c-258 0 -337 334 -337 372c0 12 11 19 23 19c11 0 22 -6 25 -23c26 -145 144 -257 289 -257c13 0 24 -11 24 -24v-63c0 -13 -11 -24 -24 -24z" />
    <glyph glyph-name="scripts.uhenzelongfermata" unicode="&#xe03d;" horiz-adv-x="336" 
d="M-191 50c0 41 32 73 73 73s74 -32 74 -73s-33 -74 -74 -74s-73 33 -73 74zM44 50c0 41 33 73 74 73s73 -32 73 -73s-32 -74 -73 -74s-74 33 -74 74zM-337 -4c0 38 79 372 337 372s337 -334 337 -372c0 -12 -11 -19 -23 -19c-11 0 -22 6 -25 23c-26 145 -144 257 -289 257
s-263 -112 -289 -257c-3 -17 -14 -23 -25 -23c-12 0 -23 7 -23 19z" />
    <glyph glyph-name="scripts.dhenzelongfermata" unicode="&#xe03e;" horiz-adv-x="336" 
d="M-191 -50c0 41 32 74 73 74s74 -33 74 -74s-33 -73 -74 -73s-73 32 -73 73zM44 -50c0 41 33 74 74 74s73 -33 73 -74s-32 -73 -73 -73s-74 32 -74 73zM337 4c0 -38 -79 -372 -337 -372s-337 334 -337 372c0 12 11 19 23 19c11 0 22 -6 25 -23c26 -145 144 -257 289 -257
s263 112 289 257c3 17 14 23 25 23c12 0 23 -7 23 -19z" />
    <glyph glyph-name="scripts.ushortfermata" unicode="&#xe03f;" horiz-adv-x="249" 
d="M-100 76c0 42 34 75 76 75s76 -33 76 -75s-34 -76 -76 -76s-76 34 -76 76zM-226 0c-14 0 -24 11 -24 24c0 3 1 7 2 10l226 502c4 9 13 14 22 14s18 -5 22 -14l226 -502c1 -3 2 -7 2 -10c0 -13 -10 -24 -24 -24h-48c-9 0 -17 5 -21 14l-182 399l-179 -399
c-4 -9 -13 -14 -22 -14z" />
    <glyph glyph-name="scripts.dshortfermata" unicode="&#xe040;" horiz-adv-x="249" 
d="M100 -76c0 -42 -34 -75 -76 -75s-76 33 -76 75s34 76 76 76s76 -34 76 -76zM226 0c14 0 24 -11 24 -24c0 -3 -1 -7 -2 -10l-226 -502c-4 -9 -13 -14 -22 -14s-18 5 -22 14l-226 502c-1 3 -2 7 -2 10c0 13 10 24 24 24h48c9 0 17 -5 21 -14l182 -399l179 399
c4 9 13 14 22 14z" />
    <glyph glyph-name="scripts.uveryshortfermata" unicode="&#xe041;" horiz-adv-x="312" 
d="M-107 60c0 33 27 60 60 60s60 -27 60 -60s-27 -60 -60 -60s-60 27 -60 60zM-191 0c-14 0 -24 11 -24 24c0 4 1 7 3 11l154 297c4 8 12 13 21 13s17 -5 21 -13l154 -297c2 -4 3 -7 3 -11c0 -13 -10 -24 -24 -24h-21c-9 0 -17 5 -21 13l-122 236l-123 -236
c-4 -8 -12 -13 -21 -13zM-289 0c-14 0 -24 11 -24 24c0 4 1 7 3 11l289 557c4 8 12 13 21 13s17 -5 21 -13l289 -557c2 -4 3 -7 3 -11c0 -13 -10 -24 -24 -24h-65c-9 0 -17 5 -21 13l-235 455l-235 -455c-4 -8 -13 -13 -22 -13z" />
    <glyph glyph-name="scripts.dveryshortfermata" unicode="&#xe042;" horiz-adv-x="312" 
d="M107 -60c0 -33 -27 -60 -60 -60s-60 27 -60 60s27 60 60 60s60 -27 60 -60zM191 0c14 0 24 -11 24 -24c0 -4 -1 -7 -3 -11l-154 -297c-4 -8 -12 -13 -21 -13s-17 5 -21 13l-154 297c-2 4 -3 7 -3 11c0 13 10 24 24 24h21c9 0 17 -5 21 -13l122 -236l123 236
c4 8 12 13 21 13zM289 0c14 0 24 -11 24 -24c0 -4 -1 -7 -3 -11l-289 -557c-4 -8 -12 -13 -21 -13s-17 5 -21 13l-289 557c-2 4 -3 7 -3 11c0 13 10 24 24 24h65c9 0 17 -5 21 -13l235 -455l235 455c4 8 13 13 22 13z" />
    <glyph glyph-name="scripts.ulongfermata" unicode="&#xe043;" horiz-adv-x="312" 
d="M-76 76c0 42 34 75 76 75s76 -33 76 -75s-34 -76 -76 -76s-76 34 -76 76zM-298 375h596c8 0 14 -6 14 -14v-337c0 -13 -10 -24 -23 -24s-24 11 -24 24v244h-530v-244c0 -13 -11 -24 -24 -24s-23 11 -23 24v337c0 8 6 14 14 14z" />
    <glyph glyph-name="scripts.dlongfermata" unicode="&#xe044;" horiz-adv-x="312" 
d="M-76 -76c0 42 34 76 76 76s76 -34 76 -76s-34 -75 -76 -75s-76 33 -76 75zM-298 -375c-8 0 -14 6 -14 14v337c0 13 10 24 23 24s24 -11 24 -24v-244h530v244c0 13 11 24 24 24s23 -11 23 -24v-337c0 -8 -6 -14 -14 -14h-596z" />
    <glyph glyph-name="scripts.uverylongfermata" unicode="&#xe045;" horiz-adv-x="374" 
d="M-60 60c0 33 27 60 60 60s60 -27 60 -60s-27 -60 -60 -60s-60 27 -60 60zM-236 225h472c8 0 14 -6 14 -14v-187c0 -13 -11 -24 -24 -24s-24 11 -24 24v126h-404v-126c0 -13 -11 -24 -24 -24s-24 11 -24 24v187c0 8 6 14 14 14zM-361 400h722c8 0 14 -6 14 -14v-362
c0 -13 -11 -24 -24 -24s-24 11 -24 24v251h-654v-251c0 -13 -11 -24 -24 -24s-24 11 -24 24v362c0 8 6 14 14 14z" />
    <glyph glyph-name="scripts.dverylongfermata" unicode="&#xe046;" horiz-adv-x="374" 
d="M-60 -60c0 33 27 60 60 60s60 -27 60 -60s-27 -60 -60 -60s-60 27 -60 60zM-236 -225c-8 0 -14 6 -14 14v187c0 13 11 24 24 24s24 -11 24 -24v-126h404v126c0 13 11 24 24 24s24 -11 24 -24v-187c0 -8 -6 -14 -14 -14h-472zM-361 -400c-8 0 -14 6 -14 14v362
c0 13 11 24 24 24s24 -11 24 -24v-251h654v251c0 13 11 24 24 24s24 -11 24 -24v-362c0 -8 -6 -14 -14 -14h-722z" />
    <glyph glyph-name="scripts.thumb" unicode="&#xe047;" horiz-adv-x="99" 
d="M24 -125l1 -50v-1c0 -13 -11 -24 -25 -24s-25 11 -25 24v1l1 50v3c-47 13 -76 66 -76 122c0 65 40 125 100 125s100 -60 100 -125c0 -56 -29 -109 -76 -122v-3zM45 0c0 44 -8 91 -45 91s-45 -47 -45 -91s8 -91 45 -91s45 47 45 91z" />
    <glyph glyph-name="scripts.sforzato" unicode="&#xe048;" horiz-adv-x="187" 
d="M-171 61c-10 2 -16 12 -16 22c0 12 10 22 22 22c2 0 3 -1 5 -1l331 -83c10 -2 17 -11 17 -21s-7 -19 -17 -21l-331 -83c-2 0 -3 -1 -5 -1c-12 0 -22 10 -22 22c0 10 6 20 16 22l196 49l109 12l-109 12z" />
    <glyph glyph-name="scripts.espr" unicode="&#xe049;" horiz-adv-x="474" 
d="M-47 81l-238 -61l-141 -20l141 -20l238 -61c10 -3 17 -12 17 -22c0 -12 -10 -22 -22 -22c-2 0 -4 1 -6 1l-400 103c-10 3 -17 11 -17 21s7 18 17 21l400 103c2 0 4 1 6 1c12 0 22 -10 22 -22c0 -10 -7 -19 -17 -22zM47 81c-10 3 -17 12 -17 22c0 12 10 22 22 22
c2 0 4 -1 6 -1l400 -103c10 -3 17 -11 17 -21s-7 -18 -17 -21l-400 -103c-2 0 -4 -1 -6 -1c-12 0 -22 10 -22 22c0 10 7 19 17 22l238 61l141 20l-141 20z" />
    <glyph glyph-name="scripts.staccato" unicode="&#xe04a;" horiz-adv-x="49" 
d="M-50 0c0 28 22 50 50 50s50 -22 50 -50s-22 -50 -50 -50s-50 22 -50 50z" />
    <glyph glyph-name="scripts.ustaccatissimo" unicode="&#xe04b;" horiz-adv-x="56" 
d="M-16 0l-41 200c-1 3 -1 5 -1 8c0 27 27 49 58 49s58 -22 58 -49c0 -3 0 -5 -1 -8l-41 -200c-2 -8 -8 -16 -16 -16s-14 8 -16 16z" />
    <glyph glyph-name="scripts.dstaccatissimo" unicode="&#xe04c;" horiz-adv-x="56" 
d="M-16 0c2 8 8 16 16 16s14 -8 16 -16l41 -200c1 -3 1 -5 1 -8c0 -27 -27 -49 -58 -49s-58 22 -58 49c0 3 0 5 1 8z" />
    <glyph glyph-name="scripts.tenuto" unicode="&#xe04d;" horiz-adv-x="150" 
d="M125 -25h-250c-14 0 -25 11 -25 25s11 25 25 25h250c14 0 25 -11 25 -25s-11 -25 -25 -25z" />
    <glyph glyph-name="scripts.uportato" unicode="&#xe04e;" horiz-adv-x="150" 
d="M-48 173c0 27 21 48 48 48s48 -21 48 -48s-21 -48 -48 -48s-48 21 -48 48zM128 -22h-256c-12 0 -22 10 -22 22s10 22 22 22h256c12 0 22 -10 22 -22s-10 -22 -22 -22z" />
    <glyph glyph-name="scripts.dportato" unicode="&#xe04f;" horiz-adv-x="150" 
d="M-48 -173c0 27 21 48 48 48s48 -21 48 -48s-21 -48 -48 -48s-48 21 -48 48zM128 22c12 0 22 -10 22 -22s-10 -22 -22 -22h-256c-12 0 -22 10 -22 22s10 22 22 22h256z" />
    <glyph glyph-name="scripts.umarcato" unicode="&#xe050;" horiz-adv-x="124" 
d="M-109 0c-9 0 -16 8 -16 16c0 2 0 4 1 6l109 244c3 6 9 9 15 9s12 -3 15 -9l109 -244c1 -2 1 -4 1 -6c0 -8 -7 -16 -16 -16h-64c-6 0 -12 3 -15 9l-63 138l-62 -138c-3 -6 -8 -9 -14 -9z" />
    <glyph glyph-name="scripts.dmarcato" unicode="&#xe051;" horiz-adv-x="124" 
d="M109 0c9 0 16 -8 16 -16c0 -2 0 -4 -1 -6l-109 -244c-3 -6 -9 -9 -15 -9s-12 3 -15 9l-109 244c-1 2 -1 4 -1 6c0 8 7 16 16 16h64c6 0 12 -3 15 -9l63 -138l62 138c3 6 8 9 14 9z" />
    <glyph glyph-name="scripts.open" unicode="&#xe052;" horiz-adv-x="99" 
d="M100 0c0 -65 -40 -125 -100 -125s-100 60 -100 125s40 125 100 125s100 -60 100 -125zM55 0c0 45 -16 91 -55 91s-55 -46 -55 -91s16 -91 55 -91s55 46 55 91z" />
    <glyph glyph-name="scripts.halfopen" unicode="&#xe053;" horiz-adv-x="99" 
d="M60 101l52 66c4 4 8 6 12 6c9 0 18 -8 18 -17c0 -3 -1 -7 -4 -10l-57 -72c12 -21 19 -47 19 -74c0 -65 -40 -125 -100 -125c-23 0 -44 9 -60 24l-52 -66c-4 -4 -8 -6 -12 -6c-9 0 -18 8 -18 17c0 3 1 7 4 10l57 72c-12 21 -19 47 -19 74c0 65 40 125 100 125
c23 0 44 -9 60 -24zM-51 -37l87 109c-9 12 -20 19 -36 19c-39 0 -55 -46 -55 -91c0 -12 1 -25 4 -37zM-36 -72c9 -12 20 -19 36 -19c39 0 55 46 55 91c0 12 -1 25 -4 37z" />
    <glyph glyph-name="scripts.halfopenvertical" unicode="&#xe054;" horiz-adv-x="99" 
d="M17 123c51 -10 83 -64 83 -123s-32 -113 -83 -123v-64c0 -9 -8 -17 -17 -17s-17 8 -17 17v64c-51 10 -83 64 -83 123s32 113 83 123v64c0 9 8 17 17 17s17 -8 17 -17v-64zM17 -88c27 11 38 50 38 88s-11 77 -38 88v-176zM-17 -88v176c-27 -11 -38 -50 -38 -88
s11 -77 38 -88z" />
    <glyph glyph-name="scripts.stopped" unicode="&#xe055;" horiz-adv-x="137" 
d="M0 -137c-18 0 -32 13 -32 31v74h-74c-18 0 -32 14 -32 32s14 32 32 32h74v74c0 18 14 32 32 32s32 -14 32 -32v-74h74c18 0 32 -14 32 -32s-14 -32 -32 -32h-74v-74c0 -18 -14 -31 -32 -31z" />
    <glyph glyph-name="scripts.uupbow" unicode="&#xe056;" horiz-adv-x="162" 
d="M119 504c3 9 11 16 21 16c12 0 23 -10 23 -22c0 -2 0 -5 -1 -7l-141 -475c-3 -9 -11 -16 -21 -16s-18 7 -21 16l-141 475c-1 2 0 5 0 7c0 12 10 22 22 22c10 0 18 -7 21 -16l84 -283l35 -159l35 159z" />
    <glyph glyph-name="scripts.dupbow" unicode="&#xe057;" horiz-adv-x="162" 
d="M119 -504l-84 283l-35 159l-35 -159l-84 -283c-3 -9 -11 -16 -21 -16c-12 0 -22 10 -22 22c0 2 -1 5 0 7l141 475c3 9 11 16 21 16s18 -7 21 -16l141 -475c1 -2 1 -5 1 -7c0 -12 -11 -22 -23 -22c-10 0 -18 7 -21 16z" />
    <glyph glyph-name="scripts.udownbow" unicode="&#xe058;" horiz-adv-x="187" 
d="M-173 333h346c8 0 15 -6 15 -14v-300c0 -11 -9 -19 -20 -19s-19 8 -19 19v181h-298v-181c0 -11 -8 -19 -19 -19s-19 8 -19 19v300c0 8 6 14 14 14z" />
    <glyph glyph-name="scripts.ddownbow" unicode="&#xe059;" horiz-adv-x="187" 
d="M-173 -333c-8 0 -14 6 -14 14v300c0 11 8 19 19 19s19 -8 19 -19v-181h298v181c0 11 8 19 19 19s20 -8 20 -19v-300c0 -8 -7 -14 -15 -14h-346z" />
    <glyph glyph-name="scripts.reverseturn" unicode="&#xe05a;" horiz-adv-x="273" 
d="M-89 76c0 -33 -26 -56 -57 -56c-21 0 -40 11 -50 33c-24 -4 -45 -25 -45 -53c0 -29 26 -49 56 -49c116 0 189 181 322 181c75 0 136 -58 136 -132c0 -70 -46 -132 -112 -132c-37 0 -72 22 -72 56c0 33 26 56 57 56c21 0 40 -11 50 -33c24 4 45 25 45 53
c0 29 -26 49 -56 49c-116 0 -189 -181 -322 -181c-75 0 -136 58 -136 132c0 70 46 132 112 132c37 0 72 -22 72 -56z" />
    <glyph glyph-name="scripts.turn" unicode="&#xe05b;" horiz-adv-x="273" 
d="M146 20c-31 0 -57 23 -57 56c0 34 35 56 72 56c66 0 112 -62 112 -132c0 -74 -61 -132 -136 -132c-133 0 -206 181 -322 181c-30 0 -56 -20 -56 -49c0 -28 21 -49 45 -53c10 22 29 33 50 33c31 0 57 -23 57 -56c0 -34 -35 -56 -72 -56c-66 0 -112 62 -112 132
c0 74 61 132 136 132c133 0 206 -181 322 -181c30 0 56 20 56 49c0 28 -21 49 -45 53c-10 -22 -29 -33 -50 -33z" />
    <glyph glyph-name="scripts.slashturn" unicode="&#xe05c;" horiz-adv-x="273" 
d="M-146 -20c31 0 57 -23 57 -56c0 -34 -35 -56 -72 -56c-66 0 -112 62 -112 132c0 74 61 132 136 132c44 0 81 -22 115 -50v72c0 12 10 22 22 22s22 -10 22 -22v-113c43 -43 96 -90 163 -90c30 0 56 20 56 49c0 28 -21 49 -45 53c-10 -22 -29 -33 -50 -33
c-31 0 -57 23 -57 56c0 34 35 56 72 56c66 0 112 -62 112 -132c0 -74 -61 -132 -136 -132c-44 0 -81 22 -115 50v-72c0 -12 -10 -22 -22 -22s-22 10 -22 22v113c-43 43 -96 90 -163 90c-30 0 -56 -20 -56 -49c0 -28 21 -49 45 -53c10 22 29 33 50 33z" />
    <glyph glyph-name="scripts.haydnturn" unicode="&#xe05d;" horiz-adv-x="249" 
d="M252 59c0 -2 -59 -134 -174 -134c-18 0 -36 4 -56 10v-63c0 -12 -10 -22 -22 -22s-22 10 -22 22v80c-1 1 -3 1 -4 2c-35 15 -67 38 -105 38c-68 0 -87 -67 -105 -67c-8 0 -16 7 -16 16c0 2 59 134 174 134c18 0 36 -4 56 -10v63c0 12 10 22 22 22s22 -10 22 -22v-80
c1 -1 3 -1 4 -2c35 -15 67 -38 105 -38c68 0 87 67 105 67c8 0 16 -7 16 -16z" />
    <glyph glyph-name="scripts.trill" unicode="&#xe05e;" horiz-adv-x="212" 
d="M-230 275c-37 0 -60 -21 -60 -47c0 -19 15 -27 36 -27c27 0 67 13 100 28l3 17c-26 20 -55 29 -79 29zM276 259c0 -55 -34 -93 -67 -93c-26 0 -40 23 -40 48c0 31 20 66 62 66h1c-8 15 -22 21 -37 21c-22 0 -46 -14 -51 -38l-54 -273c-11 7 -25 11 -39 11s-29 -4 -43 -11
l54 273c0 2 1 3 1 5c0 14 -12 24 -28 24c-7 0 -16 -2 -24 -7l-81 -45l-5 -23c36 -44 50 -83 50 -116c0 -70 -62 -111 -99 -111c-39 0 -56 43 -56 90c0 14 1 28 4 41l15 72c-40 -16 -73 -23 -97 -23c-46 0 -66 24 -66 52c0 36 36 84 101 84c30 0 57 -9 80 -23l45 227
c6 -3 13 -5 20 -5c22 0 48 16 68 35l-53 -262l63 34c26 14 52 21 74 21c28 0 50 -10 62 -27c18 17 43 26 67 26c38 0 73 -22 73 -73zM-84 171l-4 -20c-4 -19 -15 -60 -15 -87c0 -15 4 -25 14 -25c13 0 31 23 31 58c0 21 -7 46 -26 74z" />
    <glyph glyph-name="scripts.upedalheel" unicode="&#xe05f;" horiz-adv-x="124" 
d="M0 48c43 0 77 34 77 77v143c0 13 11 24 24 24s24 -11 24 -24v-143c0 -69 -56 -125 -125 -125s-125 56 -125 125v143c0 13 11 24 24 24s24 -11 24 -24v-143c0 -43 34 -77 77 -77z" />
    <glyph glyph-name="scripts.dpedalheel" unicode="&#xe060;" horiz-adv-x="124" 
d="M0 244c-43 0 -77 -34 -77 -77v-143c0 -13 -11 -24 -24 -24s-24 11 -24 24v143c0 69 56 125 125 125s125 -56 125 -125v-143c0 -13 -11 -24 -24 -24s-24 11 -24 24v143c0 43 -34 77 -77 77z" />
    <glyph glyph-name="scripts.upedaltoe" unicode="&#xe061;" horiz-adv-x="124" 
d="M79 277c4 9 12 15 22 15c13 0 24 -11 24 -24c0 -3 -1 -6 -2 -9l-101 -244c-4 -9 -12 -15 -22 -15s-18 6 -22 15l-101 244c-1 3 -2 6 -2 9c0 13 11 24 24 24c10 0 18 -6 22 -15l60 -144l19 -66l19 66z" />
    <glyph glyph-name="scripts.dpedaltoe" unicode="&#xe062;" horiz-adv-x="124" 
d="M79 15l-60 144l-19 66l-19 -66l-60 -144c-4 -9 -12 -15 -22 -15c-13 0 -24 11 -24 24c0 3 1 6 2 9l101 244c4 9 12 15 22 15s18 -6 22 -15l101 -244c1 -3 2 -6 2 -9c0 -13 -11 -24 -24 -24c-10 0 -18 6 -22 15z" />
    <glyph glyph-name="scripts.pedalheelcircle" unicode="&#xe063;" horiz-adv-x="145" 
d="M0 244c-54 0 -98 -44 -98 -98s44 -98 98 -98s98 44 98 98s-44 98 -98 98zM0 292c81 0 146 -65 146 -146s-65 -146 -146 -146s-146 65 -146 146s65 146 146 146z" />
    <glyph glyph-name="scripts.flageolet" unicode="&#xe064;" horiz-adv-x="99" 
d="M0 65c-36 0 -65 -29 -65 -65s29 -65 65 -65s65 29 65 65s-29 65 -65 65zM0 100c55 0 100 -45 100 -100s-45 -100 -100 -100s-100 45 -100 100s45 100 100 100z" />
    <glyph glyph-name="scripts.segno" unicode="&#xe065;" horiz-adv-x="249" 
d="M-198 -64c0 18 15 33 33 33s33 -15 33 -33s-15 -32 -33 -32s-33 14 -33 32zM132 64c0 18 15 32 33 32s33 -14 33 -32s-15 -33 -33 -33s-33 15 -33 33zM-38 -227c0 24 8 62 58 62c42 0 61 -33 61 -66c0 -28 -13 -57 -39 -67c9 -26 33 -44 62 -44c35 0 61 32 61 68
c0 97 -79 165 -165 217l-185 -318h-65l201 347c-107 63 -201 131 -201 253c0 82 65 150 146 150c79 0 142 -68 142 -148c0 -24 -8 -62 -58 -62c-42 0 -61 33 -61 66c0 28 13 57 39 67c-9 26 -33 44 -62 44c-35 0 -61 -32 -61 -68c0 -97 79 -165 165 -217l185 318h65
l-201 -347c107 -63 201 -131 201 -253c0 -82 -65 -150 -146 -150c-79 0 -142 68 -142 148z" />
    <glyph glyph-name="scripts.varsegno" unicode="&#xe066;" horiz-adv-x="312" 
d="M-67 950c-108 0 -169 -58 -169 -128c0 -65 58 -121 118 -163l307 -215c83 -58 124 -139 124 -212c0 -62 -30 -118 -89 -150c61 -57 89 -122 89 -182c0 -64 -32 -120 -89 -151c61 -57 89 -122 89 -182c0 -64 -31 -121 -89 -152c57 -55 83 -122 83 -186
c0 -121 -93 -233 -255 -233c-196 0 -339 152 -339 213c0 30 21 67 67 67c48 0 74 -37 74 -75c0 -21 -8 -42 -25 -56c71 -64 161 -95 238 -95c108 0 169 58 169 128c0 65 -58 121 -118 163l-307 215c-83 58 -124 139 -124 212c0 62 30 118 89 150c-61 57 -89 122 -89 182
c0 64 32 120 89 151c-61 57 -89 122 -89 182c0 64 31 121 89 152c-57 55 -83 122 -83 186c0 121 93 233 255 233c196 0 339 -152 339 -213c0 -30 -21 -67 -67 -67c-48 0 -74 37 -74 75c0 21 8 42 25 56c-71 64 -161 95 -238 95zM217 126c38 0 56 31 56 53
c0 53 -83 112 -155 162l-154 108c-61 43 -131 92 -181 92c-39 0 -56 -33 -56 -54c0 -53 83 -112 155 -162l153 -106c66 -46 134 -93 182 -93zM217 -541c39 0 56 33 56 54c0 53 -83 112 -155 162l-153 106c-66 46 -134 93 -182 93c-38 0 -56 -31 -56 -53
c0 -53 83 -112 155 -162l154 -108c61 -43 131 -92 181 -92zM-217 207c-39 0 -56 -32 -56 -53c0 -53 83 -112 155 -162l162 -113c59 -41 125 -86 173 -86c39 0 56 32 56 53c0 53 -83 112 -155 162l-162 113c-59 41 -125 86 -173 86z" />
    <glyph glyph-name="scripts.coda" unicode="&#xe067;" horiz-adv-x="254" 
d="M19 -337c0 -11 -8 -20 -19 -20s-19 9 -19 20v88c-93 13 -142 119 -147 230h-88c-11 0 -19 8 -19 19s8 19 19 19h88c5 111 54 217 147 230v89c0 11 8 19 19 19s19 -8 19 -19v-89c93 -13 142 -119 147 -230h88c11 0 19 -8 19 -19s-8 -19 -19 -19h-88
c-5 -111 -54 -217 -147 -230v-88zM19 -19v-191c63 15 72 105 73 191h-73zM19 19h73c-1 86 -10 176 -73 191v-191zM-19 -19h-73c1 -86 10 -176 73 -191v191zM-19 19v191c-63 -15 -72 -105 -73 -191h73z" />
    <glyph glyph-name="scripts.varcoda" unicode="&#xe068;" horiz-adv-x="260" 
d="M19 -344c0 -11 -8 -19 -19 -19s-19 8 -19 19v94h-134c-8 0 -14 6 -14 14v217h-94c-11 0 -19 8 -19 19s8 19 19 19h94v217c0 8 6 14 14 14h66h68v94c0 11 8 19 19 19s19 -8 19 -19v-94h134c8 0 14 -6 14 -14v-217h94c11 0 19 -8 19 -19s-8 -19 -19 -19h-94v-217
c0 -8 -6 -14 -14 -14h-66h-68v-94zM19 -19v-193h53v193h-53zM19 19h53v193h-53v-193zM-19 -19h-53v-193h53v193zM-19 19v193h-53v-193h53z" />
    <glyph glyph-name="scripts.rcomma" unicode="&#xe069;" horiz-adv-x="139" 
d="M66 169c41 0 74 -32 74 -73v-23c0 -118 -112 -176 -125 -176c-8 0 -15 7 -15 15c0 19 74 27 89 132h-30c-32 0 -59 27 -59 59c0 36 30 66 66 66z" />
    <glyph glyph-name="scripts.lcomma" unicode="&#xe06a;" horiz-adv-x="0" 
d="M-66 -169c-41 0 -74 32 -74 73v23c0 118 112 176 125 176c8 0 15 -7 15 -15c0 -19 -74 -27 -89 -132h30c32 0 59 -27 59 -59c0 -36 -30 -66 -66 -66z" />
    <glyph glyph-name="scripts.rvarcomma" unicode="&#xe06b;" horiz-adv-x="62" 
d="M-80 -143l98 311c7 21 23 30 40 30c26 0 54 -20 54 -46c0 -6 -1 -13 -5 -20l-152 -289c-4 -8 -10 -12 -17 -12c-10 0 -19 8 -19 19c0 2 0 4 1 7z" />
    <glyph glyph-name="scripts.lvarcomma" unicode="&#xe06c;" horiz-adv-x="62" 
d="M80 143l-98 -311c-7 -21 -23 -30 -40 -30c-26 0 -54 20 -54 46c0 6 1 13 5 20l152 289c4 8 10 12 17 12c10 0 19 -8 19 -19c0 -2 0 -4 -1 -7z" />
    <glyph glyph-name="scripts.raltcomma" unicode="&#xe06d;" horiz-adv-x="124" 
d="M52 14c0 57 -30 68 -30 97c0 26 25 48 50 48c39 0 60 -54 60 -92c0 -70 -53 -144 -101 -212c-4 -6 -10 -9 -15 -9c-10 0 -20 9 -20 20c0 13 56 73 56 148z" />
    <glyph glyph-name="scripts.laltcomma" unicode="&#xe06e;" horiz-adv-x="0" 
d="M-52 -14c0 -57 30 -68 30 -97c0 -26 -25 -48 -50 -48c-39 0 -60 54 -60 92c0 70 53 144 101 212c4 6 10 9 15 9c10 0 20 -9 20 -20c0 -13 -56 -73 -56 -148z" />
    <glyph glyph-name="scripts.arpeggio" unicode="&#xe06f;" horiz-adv-x="200" 
d="M-3 77c0 40 90 62 90 126c0 16 -5 33 -17 46l-29 28c-4 4 -6 8 -6 12c0 9 9 18 18 18c3 0 7 -1 10 -4l129 -111c8 -6 11 -12 11 -19c0 -40 -90 -62 -90 -126c0 -16 5 -33 17 -46l29 -28c5 -4 6 -9 6 -13c0 -9 -8 -18 -17 -18c-4 0 -7 2 -11 5l-129 111
c-8 6 -11 12 -11 19z" />
    <glyph glyph-name="scripts.trill_element" unicode="&#xe070;" horiz-adv-x="249" 
d="M173 -3c-40 0 -62 90 -126 90c-16 0 -33 -5 -46 -17l-28 -29c-4 -4 -8 -6 -12 -6c-9 0 -18 9 -18 18c0 3 1 7 4 10l111 129c6 8 12 11 19 11c40 0 62 -90 126 -90c16 0 33 5 46 17l28 29c4 5 9 6 13 6c9 0 18 -8 18 -17c0 -4 -2 -7 -5 -11l-111 -129
c-6 -8 -12 -11 -19 -11z" />
    <glyph glyph-name="scripts.arpeggio.arrow.M1" unicode="&#xe071;" horiz-adv-x="200" 
d="M41 277c-4 4 -6 9 -6 13c0 9 9 18 18 18c4 0 7 -2 10 -5l96 -80c14 -12 18 -29 18 -47v-3l68 33c4 2 7 2 9 2c5 0 6 -3 6 -6s-1 -7 -2 -8c-140 -167 -142 -252 -158 -252c-14 0 -19 87 -157 251c-2 2 -3 5 -3 8c0 4 2 8 7 8c2 0 4 -1 7 -2l90 -44c16 20 39 41 39 61
c0 8 -4 16 -13 25z" />
    <glyph glyph-name="scripts.arpeggio.arrow.1" unicode="&#xe072;" horiz-adv-x="200" 
d="M159 -27c4 -4 6 -9 6 -13c0 -9 -9 -18 -18 -18c-4 0 -7 2 -10 5l-96 80c-14 12 -18 29 -18 47v3l-68 -33c-4 -2 -7 -2 -9 -2c-5 0 -6 3 -6 6s1 7 2 8c140 167 142 252 158 252c14 0 19 -87 157 -251c2 -2 3 -5 3 -8c0 -4 -2 -8 -7 -8c-2 0 -4 1 -7 2l-90 44
c-16 -20 -39 -41 -39 -61c0 -8 4 -16 13 -25z" />
    <glyph glyph-name="scripts.prall" unicode="&#xe073;" horiz-adv-x="208" 
d="M231 57c12 0 22 -10 22 -22c0 -7 0 -7 -95 -150c-4 -6 -11 -10 -18 -10s-13 3 -17 8l-97 116l-8 -11l-36 24l68 103c4 6 12 10 19 10s13 -3 17 -8l97 -116c37 56 36 56 48 56zM-231 -57c-12 0 -22 10 -22 22c0 7 0 7 95 150c4 6 11 10 18 10s13 -3 17 -8l97 -116l8 11
l36 -24l-68 -103c-4 -6 -12 -10 -19 -10s-13 3 -17 8l-97 116c-37 -56 -36 -56 -48 -56z" />
    <glyph glyph-name="scripts.mordent" unicode="&#xe074;" horiz-adv-x="208" 
d="M0 -167c-12 0 -22 10 -22 22v72l-28 -42c-4 -6 -12 -10 -19 -10s-13 3 -17 8l-97 116c-37 -56 -36 -56 -48 -56s-22 10 -22 22c0 7 0 7 95 150c4 6 11 10 18 10s13 -3 17 -8l97 -116l4 6v138c0 12 10 22 22 22s22 -10 22 -22v-72l28 42c4 6 12 10 19 10s13 -3 17 -8
l97 -116c37 56 36 56 48 56s22 -10 22 -22c0 -7 0 -7 -95 -150c-4 -6 -11 -10 -18 -10s-13 3 -17 8l-97 116l-4 -6v-138c0 -12 -10 -22 -22 -22z" />
    <glyph glyph-name="scripts.prallprall" unicode="&#xe075;" horiz-adv-x="312" 
d="M336 57c12 0 22 -10 22 -22c0 -7 -1 -7 -96 -150c-4 -6 -11 -10 -18 -10s-13 3 -17 8l-97 116l-7 -11l-37 24l68 103c4 6 12 10 19 10s13 -3 17 -8l97 -116c37 56 37 56 49 56zM-78 -1l-8 -11l-37 24l69 103c4 6 11 10 18 10s13 -3 17 -8l97 -116l8 11l37 -24l-69 -103
c-4 -6 -11 -10 -18 -10s-13 3 -17 8zM-336 -57c-12 0 -22 10 -22 22c0 7 1 7 96 150c4 6 11 10 18 10s13 -3 17 -8l97 -116l7 11l37 -24l-68 -103c-4 -6 -12 -10 -19 -10s-13 3 -17 8l-97 116c-37 -56 -37 -56 -49 -56z" />
    <glyph glyph-name="scripts.prallmordent" unicode="&#xe076;" horiz-adv-x="312" 
d="M104 -167c-12 0 -22 10 -22 22v72l-28 -42c-4 -6 -11 -10 -18 -10s-13 3 -17 8l-97 116l-8 -11l-37 24l69 103c4 6 11 10 18 10s13 -3 17 -8l97 -116l4 6v138c0 12 10 22 22 22s22 -10 22 -22v-72l28 42c4 6 12 10 19 10s13 -3 17 -8l97 -116c37 56 37 56 49 56
s22 -10 22 -22c0 -7 -1 -7 -96 -150c-4 -6 -11 -10 -18 -10s-13 3 -17 8l-97 116l-4 -6v-138c0 -12 -10 -22 -22 -22zM-336 -57c-12 0 -22 10 -22 22c0 7 1 7 96 150c4 6 11 10 18 10s13 -3 17 -8l97 -116l7 11l37 -24l-68 -103c-4 -6 -12 -10 -19 -10s-13 3 -17 8l-97 116
c-37 -56 -37 -56 -49 -56z" />
    <glyph glyph-name="scripts.upprall" unicode="&#xe077;" horiz-adv-x="312" 
d="M336 57c12 0 22 -10 22 -22c0 -7 -1 -7 -96 -150c-4 -6 -11 -10 -18 -10s-13 3 -17 8l-97 116l-7 -11l-37 24l68 103c4 6 12 10 19 10s13 -3 17 -8l97 -116c37 56 37 56 49 56zM-78 -1l-8 -11l-37 24l69 103c4 6 11 10 18 10s13 -3 17 -8l97 -116l8 11l37 -24l-69 -103
c-4 -6 -11 -10 -18 -10s-13 3 -17 8zM-337 -307c-24 0 -59 77 -59 147c0 48 14 96 42 138c31 46 61 91 92 137c4 6 11 10 18 10s13 -3 17 -8l97 -116l7 11l37 -24l-68 -103c-4 -6 -12 -10 -19 -10s-13 3 -17 8l-97 116c-47 -70 -64 -97 -64 -159c0 -75 38 -111 38 -125
c0 -12 -12 -22 -24 -22z" />
    <glyph glyph-name="scripts.upmordent" unicode="&#xe078;" horiz-adv-x="312" 
d="M104 -167c-12 0 -22 10 -22 22v72l-28 -42c-4 -6 -11 -10 -18 -10s-13 3 -17 8l-97 116l-8 -11l-37 24l69 103c4 6 11 10 18 10s13 -3 17 -8l97 -116l4 6v138c0 12 10 22 22 22s22 -10 22 -22v-72l28 42c4 6 12 10 19 10s13 -3 17 -8l97 -116c37 56 37 56 49 56
s22 -10 22 -22c0 -7 -1 -7 -96 -150c-4 -6 -11 -10 -18 -10s-13 3 -17 8l-97 116l-4 -6v-138c0 -12 -10 -22 -22 -22zM-337 -307c-24 0 -59 77 -59 147c0 48 14 96 42 138c31 46 61 91 92 137c4 6 11 10 18 10s13 -3 17 -8l97 -116l7 11l37 -24l-68 -103
c-4 -6 -12 -10 -19 -10s-13 3 -17 8l-97 116c-47 -70 -64 -97 -64 -159c0 -75 38 -111 38 -125c0 -12 -12 -22 -24 -22z" />
    <glyph glyph-name="scripts.prallup" unicode="&#xe079;" horiz-adv-x="312" 
d="M-336 -57c-12 0 -22 10 -22 22c0 7 1 7 96 150c4 6 11 10 18 10s13 -3 17 -8l97 -116l7 11l37 -24l-68 -103c-4 -6 -12 -10 -19 -10s-13 3 -17 8l-97 116c-37 -56 -37 -56 -49 -56zM78 1l8 11l37 -24l-69 -103c-4 -6 -11 -10 -18 -10s-13 3 -17 8l-97 116l-8 -11l-37 24
l69 103c4 6 11 10 18 10s13 -3 17 -8zM337 307c24 0 59 -77 59 -147c0 -48 -14 -96 -42 -138c-31 -46 -61 -91 -92 -137c-4 -6 -11 -10 -18 -10s-13 3 -17 8l-97 116l-7 -11l-37 24l68 103c4 6 12 10 19 10s13 -3 17 -8l97 -116c47 70 64 97 64 159c0 75 -38 111 -38 125
c0 12 12 22 24 22z" />
    <glyph glyph-name="scripts.downprall" unicode="&#xe07a;" horiz-adv-x="312" 
d="M-334 214c0 -15 -61 -56 -61 -143c0 -36 11 -72 34 -104c33 49 66 99 99 148c4 6 11 10 18 10s13 -3 17 -8l97 -116l7 11l37 -24l-68 -103c-4 -6 -12 -10 -19 -10s-13 3 -17 8l-97 116c-60 -90 -60 -90 -72 -90c-25 0 -79 77 -79 167c0 93 62 159 85 159
c12 0 19 -11 19 -21zM-78 -1l-8 -11l-37 24l69 103c4 6 11 10 18 10s13 -3 17 -8l97 -116l8 11l37 -24l-69 -103c-4 -6 -11 -10 -18 -10s-13 3 -17 8zM336 57c12 0 22 -10 22 -22c0 -7 -1 -7 -96 -150c-4 -6 -11 -10 -18 -10s-13 3 -17 8l-97 116l-7 -11l-37 24l68 103
c4 6 12 10 19 10s13 -3 17 -8l97 -116c37 56 37 56 49 56z" />
    <glyph glyph-name="scripts.downmordent" unicode="&#xe07b;" horiz-adv-x="312" 
d="M104 -167c-12 0 -22 10 -22 22v72l-28 -42c-4 -6 -11 -10 -18 -10s-13 3 -17 8l-97 116l-8 -11l-37 24l69 103c4 6 11 10 18 10s13 -3 17 -8l97 -116l4 6v138c0 12 10 22 22 22s22 -10 22 -22v-72l28 42c4 6 12 10 19 10s13 -3 17 -8l97 -116c37 56 37 56 49 56
s22 -10 22 -22c0 -7 -1 -7 -96 -150c-4 -6 -11 -10 -18 -10s-13 3 -17 8l-97 116l-4 -6v-138c0 -12 -10 -22 -22 -22zM-334 214c0 -15 -61 -56 -61 -143c0 -36 11 -72 34 -104c33 49 66 99 99 148c4 6 11 10 18 10s13 -3 17 -8l97 -116l7 11l37 -24l-68 -103
c-4 -6 -12 -10 -19 -10s-13 3 -17 8l-97 116c-60 -90 -60 -90 -72 -90c-25 0 -79 77 -79 167c0 93 62 159 85 159c12 0 19 -11 19 -21z" />
    <glyph glyph-name="scripts.pralldown" unicode="&#xe07c;" horiz-adv-x="312" 
d="M334 -214c0 15 61 56 61 143c0 36 -11 72 -34 104c-33 -49 -66 -99 -99 -148c-4 -6 -11 -10 -18 -10s-13 3 -17 8l-97 116l-7 -11l-37 24l68 103c4 6 12 10 19 10s13 -3 17 -8l97 -116c60 90 60 90 72 90c25 0 79 -77 79 -167c0 -93 -62 -159 -85 -159
c-12 0 -19 11 -19 21zM78 1l8 11l37 -24l-69 -103c-4 -6 -11 -10 -18 -10s-13 3 -17 8l-97 116l-8 -11l-37 24l69 103c4 6 11 10 18 10s13 -3 17 -8zM-336 -57c-12 0 -22 10 -22 22c0 7 1 7 96 150c4 6 11 10 18 10s13 -3 17 -8l97 -116l7 11l37 -24l-68 -103
c-4 -6 -12 -10 -19 -10s-13 3 -17 8l-97 116c-37 -56 -37 -56 -49 -56z" />
    <glyph glyph-name="scripts.lineprall" unicode="&#xe07d;" horiz-adv-x="312" 
d="M336 57c12 0 22 -10 22 -22c0 -7 -1 -7 -96 -150c-4 -6 -11 -10 -18 -10s-13 3 -17 8l-97 116l-7 -11l-37 24l68 103c4 6 12 10 19 10s13 -3 17 -8l97 -116c37 56 37 56 49 56zM-78 -1l-8 -11l-37 24l69 103c4 6 11 10 18 10s13 -3 17 -8l97 -116l8 11l37 -24l-69 -103
c-4 -6 -11 -10 -18 -10s-13 3 -17 8zM-381 331c0 12 10 22 22 22s22 -10 22 -22v-328c25 37 50 75 75 112c4 6 11 10 18 10s13 -3 17 -8l97 -116l7 11l37 -24l-68 -103c-4 -6 -12 -10 -19 -10s-13 3 -17 8l-97 116c-60 -90 -60 -90 -72 -90s-22 10 -22 22v400z" />
    <glyph glyph-name="scripts.bachschleifer" unicode="&#xe07e;" horiz-adv-x="156" 
d="M460 321c11 0 17 1 17 -8c0 -4 -3 -9 -9 -9c-144 -8 -256 -127 -273 -272c-1 -2 -2 -5 -3 -7l-17 -34l-52 -103c-3 -8 -10 -13 -18 -13s-15 4 -19 10l-67 107l-1 -1l-51 -103c-3 -8 -10 -13 -18 -13s-15 4 -19 10l-67 107c-24 -49 -25 -49 -37 -49s-22 10 -22 22
c0 2 0 2 73 147c3 8 10 13 18 13s15 -4 19 -10l67 -107l1 1l51 103c3 8 10 13 18 13s15 -4 19 -10l67 -107l1 1l14 28c19 160 150 284 308 284z" />
    <glyph glyph-name="scripts.caesura.curved" unicode="&#xe07f;" horiz-adv-x="499" 
d="M174 -200c-5 0 -25 4 -25 19c0 32 72 115 91 459c1 25 20 37 39 37c20 0 40 -13 40 -38c0 -40 -8 -194 -123 -463c-4 -9 -13 -14 -22 -14zM24 -200c-5 0 -25 4 -25 19c0 32 72 115 91 459c1 25 20 37 39 37c20 0 40 -13 40 -38c0 -40 -8 -194 -123 -463
c-4 -9 -13 -14 -22 -14z" />
    <glyph glyph-name="scripts.caesura.straight" unicode="&#xe080;" horiz-adv-x="499" 
d="M153 -175l224 450c8 16 24 25 41 25h35c10 0 18 -8 18 -17c0 -3 -1 -5 -2 -8l-225 -450c-8 -16 -24 -25 -41 -25h-35c-10 0 -17 8 -17 17c0 3 1 5 2 8zM13 -175l224 450c8 16 24 25 41 25h35c10 0 18 -8 18 -17c0 -3 -1 -5 -2 -8l-225 -450c-8 -16 -24 -25 -41 -25h-35
c-10 0 -17 8 -17 17c0 3 1 5 2 8z" />
    <glyph glyph-name="scripts.tickmark" unicode="&#xe081;" horiz-adv-x="274" 
d="M-144 208c5 0 77 -46 136 -108c3 -3 6 -4 9 -4s6 1 7 4c89 279 255 325 259 325c5 0 8 -4 8 -8c0 -3 -2 -6 -5 -7c-212 -85 -208 -411 -269 -411c-10 0 -22 9 -33 33c-44 99 -119 157 -119 172c0 3 2 4 7 4z" />
    <glyph glyph-name="scripts.snappizzicato" unicode="&#xe082;" horiz-adv-x="133" 
d="M0 -21c-11 0 -21 10 -21 21v90c-41 -9 -71 -46 -71 -90c0 -51 41 -92 92 -92s92 41 92 92c0 44 -30 81 -71 90v-90c0 -11 -10 -21 -21 -21zM-21 132v68c0 11 10 21 21 21s21 -10 21 -21v-68c64 -10 112 -65 112 -132c0 -74 -59 -133 -133 -133s-133 59 -133 133
c0 67 48 122 112 132z" />
    <glyph glyph-name="clefs.C" unicode="&#xe083;" horiz-adv-x="686" 
d="M332 0c0 -18 0 -71 42 -71c29 0 55 34 86 34c123 0 227 -93 227 -213c0 -167 -88 -250 -256 -250c-82 0 -151 61 -151 141c0 42 33 75 75 75s76 -33 76 -75c0 -38 -45 -38 -45 -76c0 -21 22 -34 45 -34c114 0 135 89 135 219c0 107 -13 182 -106 182
c-69 0 -113 -70 -113 -144c0 -10 -7 -15 -15 -15s-16 5 -16 15c0 73 -30 143 -83 193v-467c0 -8 -6 -14 -14 -14h-18c-8 0 -14 6 -14 14v972c0 8 6 14 14 14h18c8 0 14 -6 14 -14v-467c53 50 83 120 83 193c0 10 8 15 16 15s15 -5 15 -15c0 -74 44 -144 113 -144
c93 0 106 75 106 182c0 130 -21 219 -135 219c-23 0 -45 -13 -45 -34c0 -38 45 -38 45 -76c0 -42 -34 -75 -76 -75s-75 33 -75 75c0 80 69 141 151 141c168 0 256 -83 256 -250c0 -120 -104 -213 -227 -213c-31 0 -57 34 -86 34c-42 0 -42 -53 -42 -71zM126 -500h-112
c-8 0 -14 6 -14 14v972c0 8 6 14 14 14h112c8 0 14 -6 14 -14v-972c0 -8 -6 -14 -14 -14z" />
    <glyph glyph-name="clefs.C_change" unicode="&#xe084;" horiz-adv-x="555" 
d="M278 0c0 -17 0 -55 31 -55c24 0 43 30 68 30c98 0 179 -78 179 -175c0 -132 -66 -200 -197 -200c-64 0 -119 48 -119 111c0 33 26 60 59 60s60 -27 60 -60c0 -29 -32 -31 -32 -60c0 -15 16 -23 32 -23c89 0 105 70 105 172c0 87 -11 147 -87 147c-52 0 -85 -53 -85 -110
c0 -9 -7 -14 -14 -14s-14 5 -14 14c0 57 -24 110 -66 147v-370c0 -8 -6 -14 -14 -14h-14c-8 0 -14 6 -14 14v772c0 8 6 14 14 14h14c8 0 14 -6 14 -14v-370c42 37 66 90 66 147c0 9 7 14 14 14s14 -5 14 -14c0 -57 33 -110 85 -110c76 0 87 60 87 147
c0 102 -16 172 -105 172c-16 0 -32 -8 -32 -23c0 -29 32 -31 32 -60c0 -33 -27 -60 -60 -60s-59 27 -59 60c0 63 55 111 119 111c131 0 197 -68 197 -200c0 -97 -81 -175 -179 -175c-25 0 -44 30 -68 30c-31 0 -31 -38 -31 -55zM100 -400h-86c-8 0 -14 6 -14 14v772
c0 8 6 14 14 14h86c8 0 14 -6 14 -14v-772c0 -8 -6 -14 -14 -14z" />
    <glyph glyph-name="clefs.varC" unicode="&#xe085;" horiz-adv-x="562" 
d="M219 -500h-18c-8 0 -14 6 -14 14v972c0 8 6 14 14 14h18c8 0 14 -6 14 -14v-299c60 0 121 1 181 1v374c0 48 43 88 92 88c47 0 83 -41 83 -88c0 -46 -37 -82 -83 -82c-16 0 -32 7 -46 17v-419c0 -9 -6 -16 -15 -16h-212v-124h212c9 0 15 -7 15 -16v-419
c14 10 30 17 46 17c46 0 83 -36 83 -82c0 -47 -36 -88 -83 -88c-49 0 -92 40 -92 88v375h-181v-299c0 -8 -6 -14 -14 -14zM126 -500h-112c-8 0 -14 6 -14 14v972c0 8 6 14 14 14h112c8 0 14 -6 14 -14v-972c0 -8 -6 -14 -14 -14z" />
    <glyph glyph-name="clefs.varC_change" unicode="&#xe086;" horiz-adv-x="449" 
d="M184 -400h-14c-8 0 -14 6 -14 14v772c0 8 6 14 14 14h14c8 0 14 -6 14 -14v-236h137v300c0 39 35 70 74 70c37 0 66 -32 66 -70c0 -36 -30 -66 -66 -66c-11 0 -22 4 -32 10v-124v-206c0 -8 -6 -14 -14 -14h-165v-100h165c8 0 14 -6 14 -14v-330c10 6 21 10 32 10
c36 0 66 -30 66 -66c0 -38 -29 -70 -66 -70c-39 0 -74 31 -74 70v300h-137v-236c0 -8 -6 -14 -14 -14zM100 -400h-86c-8 0 -14 6 -14 14v772c0 8 6 14 14 14h86c8 0 14 -6 14 -14v-772c0 -8 -6 -14 -14 -14z" />
    <glyph glyph-name="clefs.F" unicode="&#xe087;" horiz-adv-x="670" 
d="M559 -125c0 27 22 50 49 50s50 -23 50 -50s-23 -50 -50 -50s-49 23 -49 50zM559 125c0 27 22 50 49 50s50 -23 50 -50s-23 -50 -50 -50s-49 23 -49 50zM230 266c173 0 295 -89 295 -254c0 -263 -262 -414 -514 -523c-3 -3 -7 -5 -11 -5c-9 0 -16 7 -16 16c0 4 2 8 5 11
c199 117 405 264 405 490c0 118 -58 233 -164 233c-67 0 -113 -50 -135 -117c6 1 11 2 17 2c55 0 100 -45 100 -100c0 -58 -44 -107 -100 -107c-60 0 -112 48 -112 107c0 133 100 247 230 247z" />
    <glyph glyph-name="clefs.F_change" unicode="&#xe088;" horiz-adv-x="536" 
d="M447 -100c0 22 18 40 40 40s39 -18 39 -40s-17 -40 -39 -40s-40 18 -40 40zM447 100c0 22 18 40 40 40s39 -18 39 -40s-17 -40 -39 -40s-40 18 -40 40zM177 216c142 0 243 -70 243 -204c0 -211 -209 -334 -409 -423c-3 -3 -7 -5 -11 -5c-9 0 -16 7 -16 16c0 4 2 8 5 11
c148 98 300 216 300 390c0 90 -33 183 -112 183c-47 0 -75 -37 -88 -85h1c44 0 80 -36 80 -80c0 -46 -35 -85 -80 -85c-48 0 -90 38 -90 85c0 105 75 197 177 197z" />
    <glyph glyph-name="clefs.G" unicode="&#xe089;" horiz-adv-x="641" 
d="M648 2c0 -114 -74 -214 -179 -248c2 -32 3 -65 3 -97c0 -21 -1 -43 -2 -64c-7 -123 -92 -230 -211 -230c-108 0 -197 88 -197 197c0 58 54 104 113 104c54 0 95 -48 95 -104c0 -52 -43 -95 -95 -95c-8 0 -16 2 -24 4c25 -35 65 -59 111 -59c93 0 155 90 161 190
c1 20 2 39 2 59c0 28 -1 55 -3 83c-27 -5 -54 -7 -78 -7c-243 0 -342 224 -342 377c0 176 128 307 242 443c-35 102 -58 168 -58 348c0 184 140 291 160 291c5 0 11 -1 15 -5c69 -78 136 -242 136 -357c0 -141 -83 -253 -174 -362c22 -67 41 -135 58 -204h9
c157 0 258 -130 258 -264zM409 146c28 -132 47 -265 55 -346c72 28 107 93 107 159c0 85 -56 172 -162 187zM79 23c0 -110 95 -240 273 -240c21 0 43 1 66 5c-7 68 -26 209 -58 359c-79 -7 -123 -59 -123 -116c0 -43 24 -89 78 -120c5 -5 8 -11 8 -17c0 -13 -11 -24 -24 -24
c-17 0 -129 63 -129 189c0 90 60 178 164 201c-14 56 -30 112 -47 167c-104 -122 -208 -245 -208 -404zM401 1035c-55 -25 -161 -103 -161 -249c0 -52 15 -111 40 -187c62 78 141 190 141 322c0 36 -6 75 -20 114z" />
    <glyph glyph-name="clefs.G_change" unicode="&#xe08a;" horiz-adv-x="513" 
d="M265 987c32 0 125 -176 125 -299c0 -113 -60 -206 -129 -296c18 -58 34 -117 49 -176h2c134 0 208 -108 208 -216c0 -83 -44 -166 -140 -199c2 -25 3 -49 3 -74c0 -18 -1 -36 -2 -54c-6 -101 -79 -188 -177 -188c-88 0 -159 73 -159 162c0 46 42 83 90 83
c43 0 76 -38 76 -83c0 -42 -34 -76 -76 -76h-4c18 -23 45 -38 76 -38h3c72 2 119 71 124 147c1 16 1 33 1 49c0 20 -1 41 -2 61c-20 -3 -39 -5 -57 -5c-200 0 -274 187 -274 305c0 143 97 255 185 369c-31 90 -46 134 -46 290c0 146 105 238 124 238zM333 112
c16 -76 34 -178 43 -263c51 23 75 71 75 120c0 63 -41 128 -118 143zM68 13c0 -87 77 -181 213 -181c15 0 32 2 49 4c-5 53 -21 162 -45 278c-58 -7 -91 -46 -91 -89c0 -33 19 -68 61 -92c5 -5 8 -11 8 -17c0 -13 -11 -25 -24 -25c-17 0 -107 54 -107 156
c0 73 48 143 131 163c-11 46 -24 91 -38 136c-79 -102 -157 -205 -157 -333zM325 764c0 43 -12 86 -13 86c-41 -22 -121 -88 -121 -200c0 -42 14 -87 32 -144c54 75 102 160 102 258z" />
    <glyph glyph-name="clefs.GG" unicode="&#xe08b;" horiz-adv-x="1016" 
d="M186 903c0 184 140 291 160 291c5 0 11 -1 15 -5c69 -78 136 -242 136 -357c0 -141 -83 -253 -174 -362c22 -67 41 -135 58 -204h8c7 0 14 0 21 -1c45 105 130 196 209 290c-35 102 -58 168 -58 348c0 184 140 291 160 291c5 0 11 -1 15 -5c69 -78 136 -242 136 -357
c0 -141 -83 -253 -174 -362c22 -67 41 -135 58 -204h9c157 0 258 -130 258 -264c0 -114 -74 -214 -179 -248c2 -32 3 -65 3 -97c0 -21 -1 -43 -2 -64c-7 -122 -92 -230 -211 -230c-86 0 -161 56 -187 134c-13 -29 -67 -134 -188 -134c-108 0 -197 88 -197 197
c0 58 54 104 113 104c54 0 95 -48 95 -104c0 -52 -43 -95 -95 -95c-8 0 -16 2 -24 4c25 -35 65 -59 111 -59c93 0 155 90 161 190c1 20 2 39 2 59c0 28 -1 55 -3 83c-27 -5 -54 -7 -78 -7c-243 0 -342 224 -342 377c0 176 128 307 242 443c-35 102 -58 168 -58 348z
M797 -258c-29 -5 -56 -7 -80 -7c-94 0 -149 33 -179 54c-21 -16 -44 -27 -69 -35c2 -32 3 -65 3 -97v-22c21 18 49 29 78 29c54 0 95 -48 95 -104c0 -52 -43 -95 -95 -95c-8 0 -16 2 -24 4c28 -40 68 -59 109 -59c77 0 156 68 163 190c1 20 2 39 2 59c0 28 -1 55 -3 83z
M784 146c28 -132 47 -265 55 -346c72 28 107 93 107 159c0 85 -56 172 -162 187zM674 -130c-13 0 -42 23 -48 27c-12 -26 -28 -52 -50 -75c20 -12 66 -40 149 -40c20 0 43 2 68 6c-7 68 -26 209 -58 359c-47 -4 -83 -25 -103 -53c11 -29 16 -60 16 -92c0 -17 -2 -35 -5 -52
c32 -37 55 -34 55 -56c0 -13 -11 -24 -24 -24zM662 427c-53 -63 -107 -125 -146 -193c26 -15 48 -34 67 -56c28 39 71 70 126 82c-14 56 -30 112 -47 167zM615 786c0 -52 15 -111 40 -187c62 78 141 190 141 322c0 36 -6 75 -20 114c-55 -25 -161 -103 -161 -249zM456 -132
c3 -23 6 -45 8 -68c13 5 25 11 36 19c-16 15 -31 31 -44 49zM545 55c-18 30 -43 55 -76 72c-11 -37 -15 -69 -15 -98c0 -93 47 -145 81 -176c25 32 37 69 37 106c-17 30 -26 63 -27 96zM79 23c0 -110 95 -240 273 -240c21 0 43 1 66 5c-7 68 -26 209 -58 359
c-79 -7 -123 -59 -123 -116c0 -43 24 -89 78 -120c5 -5 8 -11 8 -17c0 -13 -11 -24 -24 -24c-17 0 -129 63 -129 189c0 90 60 178 164 201c-14 56 -30 112 -47 167c-104 -122 -208 -245 -208 -404zM401 1035c-55 -25 -161 -103 -161 -249c0 -52 15 -111 40 -187
c62 78 141 190 141 322c0 36 -6 75 -20 114z" />
    <glyph glyph-name="clefs.GG_change" unicode="&#xe08c;" horiz-adv-x="813" 
d="M565 987c32 0 125 -176 125 -299c0 -113 -60 -206 -129 -296c18 -58 34 -117 49 -176h2c134 0 208 -108 208 -216c0 -83 -44 -166 -140 -199c2 -25 3 -49 3 -74c0 -18 -1 -36 -2 -54c-6 -101 -79 -188 -177 -188c-66 0 -123 42 -147 100c-12 -24 -59 -100 -153 -100
c-88 0 -159 73 -159 162c0 46 42 83 90 83c43 0 76 -38 76 -83c0 -42 -34 -76 -76 -76h-4c18 -23 45 -38 76 -38h3c72 2 119 71 124 147c1 16 1 33 1 49c0 20 -1 41 -2 61c-20 -3 -39 -5 -57 -5c-200 0 -274 187 -274 305c0 143 97 255 185 369c-31 90 -46 134 -46 290
c0 146 105 238 124 238c32 0 125 -176 125 -299c0 -113 -60 -206 -129 -296c18 -58 34 -117 49 -176h2c5 0 10 -1 15 -1c35 87 99 165 160 244c-31 90 -46 134 -46 290c0 146 105 238 124 238zM633 -210c-22 -4 -42 -5 -60 -5c-64 0 -108 19 -142 43
c-16 -11 -33 -21 -51 -27c2 -25 3 -49 3 -74v-13c15 10 33 16 52 16c43 0 76 -38 76 -83c0 -42 -34 -76 -76 -76h-4c18 -23 45 -38 76 -38c72 0 122 68 127 147c1 16 1 33 1 49c0 20 -1 41 -2 61zM633 112c16 -76 34 -178 43 -263c51 23 75 71 75 120c0 63 -41 128 -118 143
zM539 -109c-11 0 -32 15 -38 20c-9 -18 -20 -35 -34 -51c16 -9 50 -28 112 -28c15 0 33 1 51 4c-5 53 -21 162 -45 278c-35 -4 -60 -20 -75 -41c8 -23 12 -48 12 -72c0 -13 -2 -25 -4 -38c25 -29 45 -26 45 -47c0 -13 -11 -25 -24 -25zM525 346c-40 -51 -79 -102 -109 -157
c19 -11 36 -25 50 -41c22 30 55 52 97 62c-11 46 -24 91 -38 136zM625 764c0 43 -12 86 -13 86c-41 -22 -121 -88 -121 -200c0 -42 14 -87 32 -144c54 75 102 160 102 258zM372 -117c1 -12 3 -22 4 -34c6 3 12 6 18 10c-8 8 -15 15 -22 24zM432 41c-13 22 -31 42 -54 55
c-8 -29 -11 -55 -11 -77c0 -68 32 -106 59 -130c18 24 26 51 26 79c-12 23 -19 48 -20 73zM68 13c0 -87 77 -181 213 -181c15 0 32 2 49 4c-5 53 -21 162 -45 278c-58 -7 -91 -46 -91 -89c0 -33 19 -68 61 -92c5 -5 8 -11 8 -17c0 -13 -11 -25 -24 -25
c-17 0 -107 54 -107 156c0 73 48 143 131 163c-11 46 -24 91 -38 136c-79 -102 -157 -205 -157 -333zM325 764c0 43 -12 86 -13 86c-41 -22 -121 -88 -121 -200c0 -42 14 -87 32 -144c54 75 102 160 102 258z" />
    <glyph glyph-name="clefs.tenorG" unicode="&#xe08d;" horiz-adv-x="828" 
d="M344 -265c-243 0 -342 224 -342 377c0 176 128 307 242 443c-1 2 -1 4 -2 6h-158c-8 0 -14 7 -14 14c0 3 1 7 3 10l85 99c3 3 7 5 11 5h35c-13 58 -18 127 -18 214c0 184 140 291 160 291c5 0 11 -1 15 -5c3 -3 134 -163 134 -355c0 -47 -7 -96 -27 -145h219v436
c0 42 43 71 88 71c34 0 55 -34 55 -71c0 -30 -25 -55 -55 -55c-17 0 -35 11 -45 26v-521c0 -8 -6 -14 -14 -14h-321c-22 -31 -47 -61 -72 -91c3 -10 7 -21 10 -31h383c8 0 14 -6 14 -14v-521c10 15 28 26 45 26c30 0 55 -25 55 -55c0 -37 -21 -71 -55 -71
c-45 0 -88 29 -88 71v436h-317c4 -15 7 -30 11 -45h9c157 0 258 -130 258 -264c0 -114 -74 -214 -179 -248c2 -32 3 -65 3 -97c0 -21 -1 -43 -2 -64c-7 -122 -92 -230 -211 -230c-108 0 -197 88 -197 197c0 58 54 104 113 104c54 0 95 -48 95 -104c0 -52 -43 -95 -95 -95
c-8 0 -16 2 -24 4c25 -35 65 -59 111 -59c93 0 155 90 161 190c1 20 2 39 2 59c0 28 -1 55 -3 83c-27 -5 -54 -7 -78 -7zM339 -218c1 0 45 1 79 6c-7 68 -26 209 -58 359c-79 -7 -123 -59 -123 -116c0 -43 24 -89 78 -120c5 -5 8 -11 8 -17c0 -13 -11 -24 -24 -24
c-17 0 -129 63 -129 189c0 90 60 178 164 201c-4 17 -8 34 -13 51h-128c-83 -111 -115 -203 -115 -279c0 -167 154 -250 261 -250zM253 689h92c59 93 76 172 76 233c0 50 -11 88 -20 113c-43 -20 -160 -89 -160 -249c0 -29 3 -61 12 -97zM409 146c28 -132 47 -265 55 -346
c72 28 107 93 107 159c0 85 -56 172 -162 187z" />
    <glyph glyph-name="clefs.tenorG_change" unicode="&#xe08e;" horiz-adv-x="663" 
d="M276 -215c-200 0 -274 187 -274 305c0 143 97 255 185 369c-13 38 -26 76 -34 115h-110c-7 0 -12 5 -12 11c0 3 1 6 3 8l68 79c2 3 6 4 9 4h31c0 15 -1 31 -1 47c0 86 14 179 111 259c4 3 8 5 13 5s11 -2 15 -6c51 -59 110 -191 110 -295v-10h160v224c0 33 34 57 70 57
c27 0 44 -28 44 -57c0 -24 -20 -44 -44 -44c-14 0 -28 9 -36 21v-292c0 -6 -5 -11 -11 -11h-204c-19 -52 -49 -101 -83 -148h287c6 0 11 -5 11 -11v-292c8 12 22 21 36 21c24 0 44 -20 44 -44c0 -29 -17 -57 -44 -57c-36 0 -70 24 -70 57v224h-269c10 -36 20 -72 29 -108h2
c134 0 208 -108 208 -216c0 -83 -44 -166 -140 -199c2 -25 3 -49 3 -74c0 -18 -1 -36 -2 -54c-6 -101 -79 -188 -177 -188c-88 0 -159 73 -159 162c0 46 42 83 90 83c43 0 76 -38 76 -83c0 -42 -34 -76 -76 -76h-4c18 -23 45 -38 76 -38c72 0 122 68 127 147c1 16 1 33 1 49
c0 20 -1 41 -2 61c-20 -3 -39 -5 -57 -5zM68 13c0 -87 77 -181 213 -181c15 0 32 2 49 4c-5 53 -21 162 -45 278c-58 -7 -91 -46 -91 -89c0 -33 19 -68 61 -92c5 -5 8 -11 8 -17c0 -13 -11 -25 -24 -25c-17 0 -107 54 -107 156c0 73 48 143 131 163c-9 38 -20 76 -31 114
h-24c-73 -95 -140 -192 -140 -311zM203 574c6 -23 13 -46 20 -68c16 22 31 45 44 68h-64zM193 676h119c4 13 13 45 13 88c0 25 -4 54 -13 86c-66 -36 -109 -101 -119 -174zM333 112c16 -76 34 -178 43 -263c51 23 75 71 75 120c0 63 -41 128 -118 143z" />
    <glyph glyph-name="clefs.percussion" unicode="&#xe08f;" horiz-adv-x="499" 
d="M486 -250h-84c-8 0 -15 6 -15 14v472c0 8 7 14 15 14h84c8 0 14 -6 14 -14v-472c0 -8 -6 -14 -14 -14zM266 -250h-84c-8 0 -15 6 -15 14v472c0 8 7 14 15 14h84c8 0 14 -6 14 -14v-472c0 -8 -6 -14 -14 -14z" />
    <glyph glyph-name="clefs.percussion_change" unicode="&#xe090;" horiz-adv-x="400" 
d="M386 -200h-62c-8 0 -14 6 -14 14v372c0 8 6 14 14 14h62c8 0 14 -6 14 -14v-372c0 -8 -6 -14 -14 -14zM210 -200h-62c-8 0 -14 6 -14 14v372c0 8 6 14 14 14h62c8 0 14 -6 14 -14v-372c0 -8 -6 -14 -14 -14z" />
    <glyph glyph-name="clefs.varpercussion" unicode="&#xe091;" horiz-adv-x="437" 
d="M423 419c8 0 14 -6 14 -14v-810c0 -8 -6 -14 -14 -14h-241c-8 0 -15 6 -15 14v810c0 8 7 14 15 14h7h227h7zM394 331h-183v-662h183v662z" />
    <glyph glyph-name="clefs.varpercussion_change" unicode="&#xe092;" horiz-adv-x="350" 
d="M336 335c8 0 14 -6 14 -14v-642c0 -8 -6 -14 -14 -14h-188c-8 0 -14 6 -14 14v642c0 8 6 14 14 14h3h181h4zM315 265h-146v-530h146v530z" />
    <glyph glyph-name="clefs.tab" unicode="&#xe093;" horiz-adv-x="699" 
d="M267 -425c0 -9 -1 -27 -43 -27c-41 0 -84 28 -84 75c0 82 118 130 234 130c54 0 217 -8 217 -103c0 -43 -36 -88 -71 -110c58 -11 102 -36 102 -91c0 -85 -90 -158 -179 -158c-73 0 -111 51 -111 60c0 12 16 25 28 25c13 0 17 -25 54 -25c44 0 95 41 95 93
c0 46 -49 64 -100 64h-1c-6 0 -8 7 -8 15c0 11 5 25 18 25c36 0 69 38 69 77c0 32 -22 64 -80 75c-11 -62 -31 -173 -40 -220c-20 -102 -84 -202 -159 -202c-6 0 -11 1 -17 2c-29 6 -83 53 -83 60c0 11 12 26 24 26c16 0 34 -37 72 -37c65 0 89 99 89 195v8
c0 35 9 109 18 163c-49 -16 -70 -47 -70 -71c0 -32 26 -25 26 -49zM70 -119c13 0 31 -20 57 -20c71 0 243 202 305 390c9 27 33 37 57 37c29 0 57 -15 57 -31c0 -8 -18 -361 -18 -365c0 -10 0 -30 21 -30c18 0 47 20 55 20c5 0 9 -8 9 -17c0 -8 -3 -16 -12 -19
c-30 -9 -57 -34 -87 -34c-32 0 -45 29 -53 58c-16 61 -26 125 -31 191c-27 -35 -56 -68 -87 -101c12 -21 35 -33 64 -33c7 0 11 1 12 1c5 0 8 -7 8 -15c0 -7 -1 -29 -58 -29c-24 0 -51 7 -68 33c-66 -62 -123 -105 -173 -105c-1 0 -2 1 -3 1c-31 1 -50 20 -75 31
c-3 1 -5 5 -5 9c0 11 11 28 25 28zM288 540c0 -8 0 -24 -42 -24c-51 0 -92 41 -92 87c0 56 60 117 233 117c46 0 120 -41 171 -41c69 0 108 44 119 44s23 -11 23 -19c0 -2 -56 -75 -149 -75c-14 0 -30 2 -45 6c-9 -59 -26 -151 -35 -193c-22 -96 -88 -185 -163 -185
c-6 0 -12 1 -19 2c-36 8 -67 43 -96 62c-3 2 -4 5 -4 9c0 11 12 26 23 26c17 0 43 -48 82 -48c56 0 82 77 85 150c2 45 13 150 22 208c-12 3 -23 5 -32 5c-80 0 -113 -40 -113 -73c0 -39 32 -31 32 -58z" />
    <glyph glyph-name="clefs.tab_change" unicode="&#xe094;" horiz-adv-x="560" 
d="M213 -340c0 -7 1 -21 -33 -21c-33 0 -68 22 -68 59c0 66 94 104 187 104c43 0 174 -6 174 -82c0 -35 -29 -70 -57 -88c46 -9 82 -29 82 -73c0 -68 -73 -126 -144 -126c-59 0 -88 41 -88 48c0 10 12 20 22 20c11 0 14 -20 44 -20c35 0 76 32 76 74c0 37 -40 51 -81 51
c-4 0 -7 5 -7 12c0 9 5 20 15 20c29 0 55 31 55 62c0 25 -17 51 -64 60c-9 -50 -25 -138 -32 -176c-16 -82 -67 -161 -127 -161c-4 0 -9 0 -14 1c-24 5 -67 42 -67 48c0 9 10 21 19 21c13 0 28 -30 59 -30c52 0 71 79 71 156v7c0 28 7 87 14 130c-39 -13 -56 -37 -56 -57
c0 -26 20 -20 20 -39zM436 206c0 -6 -14 -289 -14 -292c0 -8 1 -25 17 -25c14 0 38 16 44 16c4 0 7 -6 7 -13c0 -6 -2 -13 -9 -15c-24 -8 -46 -28 -70 -28c-26 0 -36 24 -42 47c-13 49 -21 100 -25 153c-21 -28 -44 -55 -69 -81c9 -17 28 -26 51 -26h9c3 0 7 -5 7 -11
c0 -10 -10 -24 -45 -24c-17 0 -41 5 -56 27c-53 -50 -99 -84 -139 -84h-2c-22 1 -64 25 -64 32c0 9 9 23 20 23c8 0 31 -16 52 -16c45 0 185 155 237 312c7 22 27 29 46 29c23 0 45 -11 45 -24zM230 432c0 -7 0 -20 -34 -20c-41 0 -73 33 -73 70c0 44 48 94 187 94
c37 0 95 -33 136 -33c55 0 86 35 95 35s19 -9 19 -15c0 -1 -45 -60 -119 -60c-12 0 -24 2 -36 5c-7 -47 -20 -122 -28 -155c-17 -77 -70 -148 -130 -148c-5 0 -11 1 -16 2c-28 6 -80 52 -80 57c0 9 9 21 18 21c14 0 35 -39 66 -39c45 0 66 62 68 121c1 36 11 120 18 166
c-10 2 -25 4 -26 4c-64 0 -90 -32 -90 -58c0 -31 25 -26 25 -47z" />
    <glyph glyph-name="timesig.C44" unicode="&#xe095;" horiz-adv-x="418" 
d="M428 -88c0 -20 -47 -178 -178 -178c-144 0 -250 87 -250 266c0 63 18 266 250 266c114 0 169 -114 169 -166c0 -38 -29 -69 -64 -69c-29 0 -71 24 -71 72c0 37 26 73 69 73c2 0 3 -1 5 -1c-25 35 -63 59 -108 59c-107 0 -113 -75 -113 -191c0 -14 1 -28 1 -43
s-1 -29 -1 -43c0 -116 6 -191 113 -191c76 0 129 71 147 149c2 9 8 12 15 12c8 0 16 -5 16 -15z" />
    <glyph glyph-name="timesig.C22" unicode="&#xe096;" horiz-adv-x="418" 
d="M428 -88c0 -20 -47 -178 -178 -178c-6 0 -12 1 -18 1v-71c0 -8 -6 -14 -14 -14h-16c-8 0 -14 6 -14 14v76c-65 13 -188 64 -188 260c0 77 22 227 188 260v76c0 8 6 14 14 14h16c8 0 14 -6 14 -14v-71c6 0 12 1 18 1c114 0 169 -114 169 -166c0 -38 -29 -69 -64 -69
c-29 0 -71 24 -71 72c0 37 26 73 69 73c2 0 3 -1 5 -1c-25 35 -63 59 -108 59c-6 0 -12 0 -18 -1v-466c6 -1 12 -1 18 -1c76 0 129 71 147 149c2 9 8 12 15 12c8 0 16 -5 16 -15zM188 -221v442c-47 -26 -51 -91 -51 -178c0 -14 1 -28 1 -43s-1 -29 -1 -43
c0 -87 4 -152 51 -178z" />
    <glyph glyph-name="pedal.*" unicode="&#xe097;" horiz-adv-x="388" 
d="M165 194c0 -16 13 -29 29 -29s30 13 30 29s-14 30 -30 30s-29 -14 -29 -30zM159 254c10 0 23 7 23 24c0 26 -34 38 -34 64c0 31 23 47 46 47s47 -16 47 -47c0 -26 -34 -38 -34 -64c0 -14 9 -23 20 -23c45 0 7 91 72 91c25 0 47 -22 47 -47c0 -62 -92 -33 -92 -69
c0 -10 7 -23 24 -23c26 0 38 34 64 34c31 0 47 -24 47 -47s-16 -46 -47 -46c-26 0 -38 34 -64 34c-14 0 -23 -9 -23 -20c0 -45 91 -7 91 -72c0 -25 -22 -48 -47 -48c-62 0 -33 93 -69 93c-10 0 -23 -7 -23 -24c0 -26 34 -38 34 -64c0 -31 -24 -47 -47 -47s-46 16 -46 47
c0 26 34 38 34 64c0 14 -9 23 -20 23c-45 0 -7 -92 -72 -92c-25 0 -48 23 -48 48c0 62 93 33 93 69c0 10 -7 23 -24 23c-26 0 -38 -34 -64 -34c-31 0 -47 23 -47 46s16 47 47 47c26 0 38 -34 64 -34c14 0 23 9 23 20c0 45 -92 7 -92 72c0 25 23 47 48 47c62 0 33 -92 69 -92
z" />
    <glyph glyph-name="pedal.M" unicode="&#xe098;" horiz-adv-x="238" 
d="M0 151l40 69c15 12 35 15 58 15c27 0 56 -4 83 -4c23 0 43 3 58 15l-40 -69c-15 -12 -35 -15 -58 -15c-27 0 -56 4 -83 4c-23 0 -43 -3 -58 -15z" />
    <glyph glyph-name="pedal.." unicode="&#xe099;" horiz-adv-x="79" 
d="M0 40c0 22 18 40 40 40s40 -18 40 -40s-18 -40 -40 -40s-40 18 -40 40z" />
    <glyph glyph-name="pedal.P" unicode="&#xe09a;" horiz-adv-x="416" 
d="M43 332c0 -35 28 -49 38 -49c21 0 41 34 41 67c0 5 5 7 11 7s11 -2 11 -7c0 -71 -41 -141 -86 -141c-23 0 -66 25 -66 84c0 87 93 207 258 207c111 0 171 -84 171 -149c0 -49 -33 -70 -55 -70c-51 0 -93 103 -93 104c0 6 8 11 14 11c9 0 22 -41 53 -41c13 0 29 10 29 33
c0 37 -44 90 -119 90h-10c-6 -14 -32 -86 -32 -100c0 -47 101 -117 101 -168c0 -18 -30 -57 -56 -90c57 -5 108 -37 109 -37c14 0 38 27 44 27s12 -8 12 -14c0 -7 -105 -94 -122 -94c-30 0 -29 84 -60 95c-23 -29 -46 -56 -54 -64c-13 -13 -51 -33 -69 -33
c-12 0 -17 6 -17 14c0 45 88 101 128 106c23 27 26 33 26 44c0 47 -87 113 -87 152c0 20 36 125 53 160c-109 -14 -173 -90 -173 -144z" />
    <glyph glyph-name="pedal.d" unicode="&#xe09b;" horiz-adv-x="333" 
d="M3 438c64 0 332 -113 332 -292c0 -72 -49 -146 -113 -146c-62 0 -111 76 -111 143c0 53 43 108 92 134c-49 70 -125 125 -203 139c-4 1 -6 5 -6 9c0 6 4 13 9 13zM216 257c-32 -22 -45 -73 -45 -114c0 -43 14 -98 51 -98c24 0 37 28 37 68c0 42 -13 95 -43 144z" />
    <glyph glyph-name="pedal.e" unicode="&#xe09c;" horiz-adv-x="199" 
d="M95 291c31 0 52 -22 52 -49c0 -37 -38 -79 -72 -108l-12 -10c29 -53 44 -66 54 -66c15 0 67 52 72 52s13 -7 13 -13c0 -9 -91 -84 -92 -85c-10 -7 -23 -10 -36 -10c-22 0 -43 6 -63 80c0 0 -13 2 -13 10c0 3 2 8 8 13c-4 20 -6 38 -6 55c0 88 52 131 95 131zM75 252
c-16 0 -38 -12 -38 -48c0 -20 6 -42 15 -60l9 7c34 29 46 53 46 70c0 20 -16 31 -32 31z" />
    <glyph glyph-name="pedal.Ped" unicode="&#xe09d;" horiz-adv-x="797" 
d="M467 438c64 0 333 -113 333 -292c0 -72 -49 -146 -113 -146c-43 0 -79 36 -98 81c-50 -46 -88 -81 -118 -81c-24 0 -44 23 -60 82h-1h-3c-1 -1 -94 -80 -111 -80c-30 0 -29 84 -60 95c-23 -29 -46 -56 -54 -64c-13 -13 -51 -33 -69 -33c-12 0 -17 6 -17 14
c0 45 88 101 128 106c23 27 26 33 26 44c0 47 -87 113 -87 152c0 20 36 125 53 160c-109 -14 -173 -90 -173 -144c0 -35 28 -49 38 -49c21 0 41 34 41 67c0 5 5 7 11 7s11 -2 11 -7c0 -71 -41 -141 -86 -141c-23 0 -66 25 -66 84c0 87 93 207 258 207
c111 0 171 -84 171 -149c0 -49 -33 -70 -55 -70c-51 0 -93 103 -93 104c0 6 8 11 14 11c9 0 22 -41 53 -41c13 0 29 10 29 33c0 37 -44 90 -119 90h-10c-6 -14 -32 -86 -32 -100c0 -47 101 -117 101 -168c0 -18 -30 -57 -56 -90c57 -5 107 -36 109 -36c16 0 36 25 43 26
c-4 18 -6 35 -6 50c0 87 53 131 96 131c31 0 51 -22 51 -49c0 -37 -37 -79 -71 -108l-12 -10c29 -53 44 -66 54 -66c12 0 63 45 64 46c-3 13 -5 26 -5 39c0 53 42 108 91 134c-49 70 -124 125 -202 139c-4 1 -6 5 -6 9c0 6 3 13 8 13zM475 252c-16 0 -38 -12 -38 -48
c0 -20 6 -42 15 -60l9 7c34 29 46 53 46 70c0 20 -16 31 -32 31zM680 257c-32 -22 -45 -73 -45 -114c0 -43 15 -98 52 -98c24 0 37 28 37 68c0 42 -14 95 -44 144z" />
    <glyph glyph-name="brackettips.up" unicode="&#xe09e;" horiz-adv-x="474" 
d="M0 -56v80c0 18 14 32 32 32h63c150 0 249 135 331 265c4 7 10 9 16 9c11 0 21 -9 21 -20c0 -3 -1 -6 -3 -10c-90 -143 -199 -356 -365 -356h-95z" />
    <glyph glyph-name="brackettips.down" unicode="&#xe09f;" horiz-adv-x="474" 
d="M0 56h95c166 0 275 -213 365 -356c2 -4 3 -7 3 -10c0 -11 -10 -20 -21 -20c-6 0 -12 2 -16 9c-82 130 -181 265 -331 265h-63c-18 0 -32 14 -32 32v80z" />
    <glyph glyph-name="accordion.discant" unicode="&#xe0a0;" horiz-adv-x="395" 
d="M396 375c0 -216 -179 -389 -396 -389s-396 173 -396 389s179 389 396 389s396 -173 396 -389zM337 264c11 35 17 73 17 111s-6 76 -17 111h-674c-11 -35 -17 -73 -17 -111s6 -76 17 -111h674zM327 236h-654c53 -129 179 -222 327 -222s274 93 327 222zM-327 514h654
c-53 129 -179 222 -327 222s-274 -93 -327 -222z" />
    <glyph glyph-name="accordion.dot" unicode="&#xe0a1;" horiz-adv-x="62" 
d="M-62 0c0 35 27 62 62 62s62 -27 62 -62s-27 -62 -62 -62s-62 27 -62 62z" />
    <glyph glyph-name="accordion.freebass" unicode="&#xe0a2;" horiz-adv-x="270" 
d="M271 250c0 -147 -123 -264 -271 -264s-271 117 -271 264s123 264 271 264s271 -117 271 -264zM229 236h-458c7 -122 106 -222 229 -222s222 100 229 222zM-229 264h458c-7 122 -106 222 -229 222s-222 -100 -229 -222z" />
    <glyph glyph-name="accordion.stdbass" unicode="&#xe0a3;" horiz-adv-x="520" 
d="M521 500c0 -285 -235 -514 -521 -514s-521 229 -521 514s235 514 521 514s521 -229 521 -514zM479 486h-958c2 -80 24 -156 60 -222h838c36 66 58 142 60 222zM402 236h-804c85 -133 233 -222 402 -222s317 89 402 222zM-479 514h958c-2 80 -24 156 -60 222h-838
c-36 -66 -58 -142 -60 -222zM-402 764h804c-85 133 -233 222 -402 222s-317 -89 -402 -222z" />
    <glyph glyph-name="accordion.bayanbass" unicode="&#xe0a4;" horiz-adv-x="270" 
d="M250 791c11 0 21 -10 21 -21v-750c0 -11 -10 -20 -21 -20h-500c-11 0 -21 9 -21 20v750c0 11 10 21 21 21h500zM229 41v209h-458v-209h458zM229 291v209h-458v-209h458zM229 541v209h-458v-209h458z" />
    <glyph glyph-name="accordion.oldEE" unicode="&#xe0a5;" horiz-adv-x="270" 
d="M229 264c0 129 -101 236 -229 236s-229 -107 -229 -236s101 -235 229 -235s229 106 229 235zM271 264c0 -147 -123 -264 -271 -264s-271 117 -271 264s123 265 271 265s271 -118 271 -265zM58 371c0 27 21 48 48 48s48 -21 48 -48s-21 -49 -48 -49c-4 0 -8 1 -12 2
l-50 -41l64 6c8 14 24 24 42 24c27 0 48 -22 48 -49s-21 -48 -48 -48c-18 0 -34 10 -42 24l-64 6l50 -41c4 1 8 2 12 2c27 0 48 -22 48 -49s-21 -48 -48 -48s-48 21 -48 48c0 4 0 9 1 13l-41 49l6 -64c14 -8 24 -24 24 -42c0 -27 -21 -48 -48 -48s-48 21 -48 48
c0 18 10 34 24 42l6 64l-41 -49c1 -4 1 -9 1 -13c0 -27 -21 -48 -48 -48s-48 21 -48 48s21 49 48 49c4 0 8 -1 12 -2l50 41l-64 -6c-8 -14 -24 -24 -42 -24c-27 0 -48 21 -48 48s21 49 48 49c18 0 34 -10 42 -24l64 -6l-50 41c-4 -1 -8 -2 -12 -2c-27 0 -48 22 -48 49
s21 48 48 48s48 -21 48 -48c0 -4 0 -9 -1 -13l41 -49l-6 64c-14 8 -24 23 -24 41c0 27 21 49 48 49s48 -22 48 -49c0 -18 -10 -33 -24 -41l-6 -64l41 49c-1 4 -1 9 -1 13z" />
    <glyph glyph-name="accordion.push" unicode="&#xe0a6;" horiz-adv-x="0" 
d="M-198 586l194 -276c3 -4 4 -7 4 -12s-1 -9 -4 -13l-194 -276c-5 -7 -11 -9 -17 -9c-12 0 -23 10 -23 22c0 4 1 9 4 13l185 263l-185 263c-3 4 -4 8 -4 12c0 12 11 22 23 22c6 0 12 -2 17 -9z" />
    <glyph glyph-name="accordion.pull" unicode="&#xe0a7;" horiz-adv-x="44" 
d="M44 22c0 -12 -10 -22 -22 -22s-22 10 -22 22v485h-172c-12 0 -22 10 -22 22v44c0 12 10 22 22 22h194c12 0 22 -10 22 -22v-551z" />
    <glyph glyph-name="ties.lyric.short" unicode="&#xe0a8;" horiz-adv-x="0" 
d="M176 -100c0 -16 -66 -90 -176 -90s-176 74 -176 90c0 10 10 19 20 19c34 0 -4 -46 144 -46h12h12c148 0 110 46 144 46c10 0 20 -9 20 -19z" />
    <glyph glyph-name="ties.lyric.default" unicode="&#xe0a9;" horiz-adv-x="0" 
d="M238 -100c0 -18 -95 -96 -238 -96s-238 78 -238 96c0 10 9 19 19 19c4 0 9 -2 13 -5c53 -46 126 -46 196 -46h10h10c70 0 143 0 196 46c4 3 9 5 13 5c10 0 19 -9 19 -19z" />
    <glyph glyph-name="plus" unicode="+" horiz-adv-x="249" 
d="M125 125c-18 0 -32 14 -32 32v61h-61c-18 0 -32 14 -32 32s14 32 32 32h61v61c0 18 14 32 32 32s32 -14 32 -32v-61h61c18 0 32 -14 32 -32s-14 -32 -32 -32h-61v-61c0 -18 -14 -32 -32 -32z" />
    <glyph glyph-name="comma" unicode="," horiz-adv-x="109" 
d="M61 -29c0 41 -61 27 -61 84c0 30 25 55 55 55c20 0 55 -9 55 -67c0 -37 -14 -94 -55 -181c-3 -7 -9 -9 -15 -9c-9 0 -17 6 -17 16c0 13 38 68 38 102z" />
    <glyph glyph-name="hyphen" unicode="-" horiz-adv-x="166" 
d="M133 133h-99c-19 0 -34 15 -34 34s15 33 34 33h99c19 0 34 -14 34 -33s-15 -34 -34 -34z" />
    <glyph glyph-name="period" unicode="." horiz-adv-x="109" 
d="M0 55c0 30 25 55 55 55s55 -25 55 -55s-25 -55 -55 -55s-55 25 -55 55z" />
    <glyph glyph-name="zero" unicode="0" horiz-adv-x="375" 
d="M188 466c-56 0 -64 -76 -64 -149c0 -24 1 -47 1 -67s-1 -43 -1 -67c0 -73 8 -149 64 -149s63 76 63 149c0 24 -1 47 -1 67s1 43 1 67c0 73 -7 149 -63 149zM188 500c117 0 188 -122 188 -250s-71 -250 -188 -250s-188 122 -188 250s71 250 188 250z" />
    <glyph glyph-name="one" unicode="1" horiz-adv-x="342" 
d="M188 487c21 0 41 14 48 14c8 0 14 -9 14 -20v-356c0 -51 32 -98 79 -98c9 0 13 -7 13 -14s-4 -13 -13 -13c-47 0 -94 13 -141 13s-94 -13 -141 -13c-9 0 -13 6 -13 13s4 14 13 14c47 0 78 47 78 98v225c0 14 -9 22 -18 22c-5 0 -10 -2 -12 -7l-65 -130
c-3 -7 -8 -9 -14 -9c-9 0 -18 6 -18 16c0 3 1 5 2 8l125 250c1 3 4 4 7 4c11 0 33 -17 56 -17z" />
    <glyph glyph-name="two" unicode="2" horiz-adv-x="375" 
d="M232 0c-90 0 -91 68 -144 68c-29 0 -58 -21 -61 -56c-1 -8 -7 -12 -13 -12c-7 0 -14 4 -14 13v2c15 172 232 163 232 340c0 57 -14 118 -63 118c-29 0 -58 -13 -58 -39s34 -40 34 -66c0 -36 -30 -66 -66 -66s-65 30 -65 66c0 78 73 132 155 132c97 0 188 -56 188 -145
c0 -146 -139 -157 -237 -210h14c85 0 112 -60 170 -60c50 0 39 40 58 40c7 0 14 -5 14 -13c0 -23 -46 -112 -144 -112z" />
    <glyph glyph-name="three" unicode="3" horiz-adv-x="341" 
d="M267 266c0 -37 74 -26 74 -125c0 -93 -81 -141 -183 -141c-81 0 -158 44 -158 117c0 35 28 63 63 63s62 -28 62 -63c0 -24 -39 -28 -39 -52c0 -30 37 -38 72 -38c47 0 58 59 58 114v31c0 44 -3 77 -45 77h-76c-11 0 -17 9 -17 17s6 16 17 16h76c43 0 45 35 45 81v24
c0 52 -15 86 -62 86c-31 0 -65 -8 -65 -35c0 -21 34 -24 34 -45c0 -30 -24 -55 -54 -55s-55 25 -55 55c0 66 68 107 140 107c92 0 172 -31 172 -113c0 -115 -59 -79 -59 -121z" />
    <glyph glyph-name="four" unicode="4" horiz-adv-x="409" 
d="M222 487c38 0 73 14 81 14c9 0 15 -7 15 -14c0 -2 0 -4 -2 -6l-282 -322h157v107c0 38 36 30 72 77c23 31 23 58 38 58c7 0 15 -6 15 -16v-226h77c11 0 17 -9 17 -17s-6 -17 -17 -17h-77c0 -51 31 -98 78 -98c9 0 14 -7 14 -14s-5 -13 -14 -13c-47 0 -94 13 -141 13
s-94 -13 -141 -13c-9 0 -13 6 -13 13s4 14 13 14c47 0 79 47 79 98h-157c-27 0 -36 17 -36 27c0 12 130 132 130 329c0 11 7 19 16 19c6 0 41 -13 78 -13z" />
    <glyph glyph-name="four.alt" unicode="&#xe0aa;" horiz-adv-x="409" 
d="M222 487c38 0 73 14 81 14c9 0 15 -7 15 -14c0 -2 0 -4 -2 -6l-282 -322h157v2c0 38 36 30 72 77c23 31 23 58 38 58c7 0 15 -6 15 -16v-121h77c11 0 17 -9 17 -17s-6 -17 -17 -17h-77c0 -51 31 -98 78 -98c9 0 14 -7 14 -14s-5 -13 -14 -13c-47 0 -94 13 -141 13
s-94 -13 -141 -13c-9 0 -13 6 -13 13s4 14 13 14c47 0 79 47 79 98h-157c-27 0 -36 17 -36 27c0 12 130 132 130 329c0 11 7 19 16 19c6 0 41 -13 78 -13z" />
    <glyph glyph-name="five" unicode="5" horiz-adv-x="345" 
d="M49 500c1 0 73 -13 140 -13c65 0 139 13 140 13c11 0 18 -7 18 -13c0 -7 -89 -104 -261 -104c-10 0 -19 -9 -19 -19v-82c27 27 66 39 105 39c116 0 187 -51 187 -161c0 -96 -93 -160 -195 -160c-83 0 -164 42 -164 117c0 35 28 63 63 63s62 -28 62 -63
c0 -24 -39 -28 -39 -52c0 -32 41 -38 78 -38c55 0 70 69 70 133c0 61 -10 127 -62 127c-105 0 -100 -47 -122 -47c-9 0 -17 7 -17 17v224c0 10 7 19 16 19z" />
    <glyph glyph-name="six" unicode="6" horiz-adv-x="348" 
d="M174 258c-45 0 -49 -34 -49 -82v-33v-33c0 -48 4 -83 49 -83c56 0 57 51 57 116s-1 115 -57 115zM125 272c14 9 31 13 49 13c103 0 174 -45 174 -142s-71 -143 -174 -143c-113 0 -174 124 -174 250c0 129 76 250 195 250c72 0 139 -41 139 -107c0 -35 -27 -63 -62 -63
s-63 28 -63 63c0 23 38 24 38 47s-26 33 -52 33c-62 0 -72 -58 -72 -127c0 -24 1 -49 2 -74z" />
    <glyph glyph-name="seven" unicode="7" horiz-adv-x="342" 
d="M368 483c0 -19 -155 -190 -155 -387c0 -47 9 -76 9 -81c0 -9 -8 -16 -16 -16c-7 0 -41 14 -78 14s-73 -14 -80 -14c-9 0 -15 7 -15 15c0 4 25 93 211 350c-19 -9 -38 -14 -56 -14c-61 0 -68 52 -110 52c-25 0 -44 -24 -44 -75v-60c0 -11 -9 -17 -17 -17s-17 6 -17 17v216
c0 11 9 17 17 17s17 -6 17 -17v-15c0 -8 9 -17 14 -17c4 0 31 49 89 49c67 0 73 -53 121 -53c55 0 76 53 92 53c9 0 18 -8 18 -17z" />
    <glyph glyph-name="seven.alt" unicode="&#xe0ab;" horiz-adv-x="342" 
d="M368 483c0 -19 -155 -190 -155 -387c0 -47 9 -76 9 -81c0 -9 -8 -16 -16 -16c-7 0 -41 14 -78 14s-73 -14 -80 -14c-9 0 -15 7 -15 15c0 4 25 93 211 350c-19 -9 -38 -14 -56 -14c-61 0 -68 52 -110 52c-25 0 -44 -24 -44 -75c0 -11 -9 -17 -17 -17s-17 6 -17 17v156
c0 11 9 17 17 17s17 -6 17 -17v-15c0 -8 9 -17 14 -17c4 0 31 49 89 49c67 0 73 -53 121 -53c55 0 76 53 92 53c9 0 18 -8 18 -17z" />
    <glyph glyph-name="eight" unicode="8" horiz-adv-x="375" 
d="M264 294c24 29 42 61 42 98c0 51 -54 81 -111 81c-44 0 -69 -33 -69 -66c0 -19 9 -39 28 -50zM300 273c55 -32 81 -79 81 -126c0 -75 -67 -147 -193 -147c-96 0 -188 54 -188 142c0 49 35 86 71 121c-36 28 -53 65 -53 102c0 69 61 135 177 135c81 0 162 -36 162 -108
c0 -46 -26 -85 -57 -119zM106 241c-30 -28 -56 -58 -56 -99c0 -68 66 -115 138 -115c53 0 83 40 83 79c0 23 -10 45 -33 58z" />
    <glyph glyph-name="nine" unicode="9" horiz-adv-x="348" 
d="M174 242c45 0 49 34 49 82v33v33c0 48 -4 83 -49 83c-56 0 -57 -51 -57 -116s1 -115 57 -115zM223 228c-14 -9 -31 -13 -49 -13c-103 0 -174 45 -174 142s71 143 174 143c113 0 174 -124 174 -250c0 -129 -76 -250 -195 -250c-72 0 -139 41 -139 107c0 35 28 63 63 63
s62 -28 62 -63c0 -23 -37 -24 -37 -47s25 -33 51 -33c62 0 72 58 72 127c0 24 -1 49 -2 74z" />
    <glyph glyph-name="fixedwidth.zero" unicode="&#xe0ac;" horiz-adv-x="409" 
d="M205 466c-56 0 -63 -76 -63 -149v-67v-67c0 -73 7 -149 63 -149s63 76 63 149c0 24 -1 47 -1 67s1 43 1 67c0 73 -7 149 -63 149zM205 500c117 0 188 -122 188 -250s-71 -250 -188 -250s-188 122 -188 250s71 250 188 250z" />
    <glyph glyph-name="fixedwidth.one" unicode="&#xe0ad;" horiz-adv-x="409" 
d="M228 487c21 0 41 14 48 14c8 0 15 -9 15 -20v-356c0 -51 31 -98 78 -98c9 0 14 -7 14 -14s-5 -13 -14 -13c-47 0 -94 13 -141 13s-93 -13 -140 -13c-9 0 -14 6 -14 13s5 14 14 14c47 0 78 47 78 98v225c0 14 -10 22 -19 22c-5 0 -9 -2 -11 -7l-65 -130
c-3 -7 -9 -9 -15 -9c-9 0 -17 6 -17 16c0 3 1 5 2 8l125 250c1 3 3 4 6 4c11 0 33 -17 56 -17z" />
    <glyph glyph-name="fixedwidth.two" unicode="&#xe0ae;" horiz-adv-x="409" 
d="M249 0c-90 0 -91 68 -144 68c-29 0 -58 -21 -61 -56c-1 -8 -7 -12 -13 -12c-7 0 -14 4 -14 13v2c15 172 232 163 232 340c0 57 -14 118 -63 118c-28 0 -56 -13 -56 -39s34 -40 34 -66c0 -36 -30 -66 -66 -66s-66 30 -66 66c0 77 73 132 154 132c97 0 188 -56 188 -145
c0 -146 -139 -157 -237 -210h14c85 0 112 -60 170 -60c50 0 39 40 58 40c7 0 14 -5 14 -13c0 -23 -46 -112 -144 -112z" />
    <glyph glyph-name="fixedwidth.three" unicode="&#xe0af;" horiz-adv-x="409" 
d="M302 266c0 -37 74 -26 74 -125c0 -93 -82 -141 -184 -141c-81 0 -158 44 -158 117c0 35 28 63 63 63s62 -28 62 -63c0 -24 -38 -28 -38 -52c0 -30 36 -38 71 -38c47 0 58 59 58 114c0 11 1 21 1 31c0 44 -4 77 -46 77h-76c-11 0 -17 9 -17 17s6 16 17 16h76
c43 0 45 35 45 81v24c0 52 -15 86 -62 86c-30 0 -61 -9 -61 -35c0 -21 34 -24 34 -45c0 -30 -25 -55 -55 -55s-55 25 -55 55c0 65 66 107 137 107c92 0 172 -31 172 -113c0 -115 -58 -79 -58 -121z" />
    <glyph glyph-name="fixedwidth.four" unicode="&#xe0b0;" horiz-adv-x="409" 
d="M222 487c38 0 73 14 81 14c9 0 15 -7 15 -14c0 -2 0 -4 -2 -6l-282 -322h157v107c0 38 36 30 72 77c23 31 23 58 38 58c7 0 15 -6 15 -16v-226h77c11 0 17 -9 17 -17s-6 -17 -17 -17h-77c0 -51 31 -98 78 -98c9 0 14 -7 14 -14s-5 -13 -14 -13c-47 0 -94 13 -141 13
s-94 -13 -141 -13c-9 0 -13 6 -13 13s4 14 13 14c47 0 79 47 79 98h-157c-27 0 -36 17 -36 27c0 12 130 132 130 329c0 11 7 19 16 19c6 0 41 -13 78 -13z" />
    <glyph glyph-name="fixedwidth.four.alt" unicode="&#xe0b1;" horiz-adv-x="409" 
d="M222 487c38 0 73 14 81 14c9 0 15 -7 15 -14c0 -2 0 -4 -2 -6l-282 -322h157v2c0 38 36 30 72 77c23 31 23 58 38 58c7 0 15 -6 15 -16v-121h77c11 0 17 -9 17 -17s-6 -17 -17 -17h-77c0 -51 31 -98 78 -98c9 0 14 -7 14 -14s-5 -13 -14 -13c-47 0 -94 13 -141 13
s-94 -13 -141 -13c-9 0 -13 6 -13 13s4 14 13 14c47 0 79 47 79 98h-157c-27 0 -36 17 -36 27c0 12 130 132 130 329c0 11 7 19 16 19c6 0 41 -13 78 -13z" />
    <glyph glyph-name="fixedwidth.five" unicode="&#xe0b2;" horiz-adv-x="409" 
d="M72 500c1 0 72 -13 139 -13c65 0 140 13 141 13c11 0 17 -7 17 -13c0 -7 -89 -104 -261 -104c-10 0 -19 -9 -19 -19v-82c27 27 66 39 105 39c116 0 188 -51 188 -161c0 -96 -94 -160 -196 -160c-83 0 -164 42 -164 117c0 35 28 63 63 63s63 -28 63 -63
c0 -24 -39 -28 -39 -52c0 -32 40 -38 77 -38c55 0 70 69 70 133c0 61 -10 127 -62 127c-105 0 -100 -47 -122 -47c-9 0 -17 7 -17 17v224c0 10 8 19 17 19z" />
    <glyph glyph-name="fixedwidth.six" unicode="&#xe0b3;" horiz-adv-x="409" 
d="M205 258c-45 0 -49 -34 -49 -82v-33v-33c0 -48 4 -83 49 -83c56 0 57 51 57 116s-1 115 -57 115zM156 272c14 9 31 13 49 13c103 0 174 -45 174 -142s-71 -143 -174 -143c-113 0 -174 124 -174 250c0 129 76 250 195 250c72 0 139 -41 139 -107c0 -35 -28 -63 -63 -63
s-62 28 -62 63c0 23 37 24 37 47s-25 33 -51 33c-62 0 -72 -58 -72 -127c0 -24 1 -49 2 -74z" />
    <glyph glyph-name="fixedwidth.seven" unicode="&#xe0b4;" horiz-adv-x="409" 
d="M413 483c0 -21 -165 -199 -165 -393c0 -43 8 -70 8 -75c0 -9 -8 -16 -16 -16c-7 0 -42 14 -79 14s-72 -14 -79 -14c-9 0 -16 7 -16 15c0 4 14 77 219 348c-19 -9 -37 -13 -55 -13c-63 0 -71 54 -116 54c-26 0 -46 -23 -46 -76v-60c0 -11 -9 -17 -17 -17s-17 6 -17 17v216
c0 11 9 17 17 17s17 -6 17 -17v-15c0 -8 9 -17 14 -17c3 0 31 49 92 49c70 0 75 -55 126 -55c58 0 79 55 95 55c9 0 18 -8 18 -17z" />
    <glyph glyph-name="fixedwidth.seven.alt" unicode="&#xe0b5;" horiz-adv-x="409" 
d="M413 483c0 -21 -165 -199 -165 -393c0 -43 8 -70 8 -75c0 -9 -8 -16 -16 -16c-7 0 -42 14 -79 14s-72 -14 -79 -14c-9 0 -16 7 -16 15c0 4 14 77 219 348c-19 -9 -37 -13 -55 -13c-63 0 -71 54 -116 54c-26 0 -46 -23 -46 -76c0 -11 -9 -17 -17 -17s-17 6 -17 17v156
c0 11 9 17 17 17s17 -6 17 -17v-15c0 -8 9 -17 14 -17c3 0 31 49 92 49c70 0 75 -55 126 -55c58 0 79 55 95 55c9 0 18 -8 18 -17z" />
    <glyph glyph-name="fixedwidth.eight" unicode="&#xe0b6;" horiz-adv-x="409" 
d="M281 294c24 29 43 61 43 98c0 51 -55 81 -112 81c-44 0 -69 -33 -69 -66c0 -19 9 -39 28 -50zM317 273c55 -32 81 -79 81 -126c0 -75 -67 -147 -193 -147c-96 0 -188 54 -188 142c0 49 35 86 71 121c-36 28 -53 65 -53 102c0 69 61 135 177 135c81 0 162 -36 162 -108
c0 -46 -26 -85 -57 -119zM123 241c-30 -28 -56 -58 -56 -99c0 -68 66 -115 138 -115c53 0 83 40 83 79c0 23 -10 45 -33 58z" />
    <glyph glyph-name="fixedwidth.nine" unicode="&#xe0b7;" horiz-adv-x="409" 
d="M205 242c45 0 49 34 49 82v33v33c0 48 -4 83 -49 83c-56 0 -57 -51 -57 -116s1 -115 57 -115zM254 228c-14 -9 -31 -13 -49 -13c-103 0 -174 45 -174 142s71 143 174 143c113 0 174 -124 174 -250c0 -129 -76 -250 -195 -250c-72 0 -139 41 -139 107c0 35 27 63 62 63
s63 -28 63 -63c0 -23 -38 -24 -38 -47s26 -33 52 -33c62 0 72 58 72 127c0 24 -1 49 -2 74z" />
    <glyph glyph-name="fattened.zero" unicode="&#xe0b8;" horiz-adv-x="375" 
d="M188 450c-58 0 -63 -89 -63 -163v-37v-37c0 -74 5 -163 63 -163s63 89 63 163c0 13 -1 26 -1 37s1 24 1 37c0 74 -5 163 -63 163zM188 500c117 0 188 -122 188 -250s-71 -250 -188 -250s-188 122 -188 250s71 250 188 250z" />
    <glyph glyph-name="fattened.one" unicode="&#xe0b9;" horiz-adv-x="348" 
d="M188 487c16 0 29 14 40 14c12 0 22 -14 22 -30v-346c0 -46 35 -85 79 -85c13 0 20 -10 20 -20s-7 -20 -20 -20c-47 0 -94 13 -141 13s-94 -13 -141 -13c-13 0 -20 10 -20 20s7 20 20 20c44 0 78 39 78 85v150c0 21 -15 33 -28 33c-7 0 -14 -3 -17 -10l-35 -71
c-5 -10 -14 -14 -22 -14c-13 0 -26 11 -26 25c0 4 1 8 3 12l125 250c2 4 6 5 10 5c17 0 36 -18 53 -18z" />
    <glyph glyph-name="fattened.two" unicode="&#xe0ba;" horiz-adv-x="375" 
d="M92 66c-60 0 -41 -66 -72 -66c-10 0 -20 7 -20 20v2c15 170 232 158 232 333c0 51 -18 105 -63 105c-29 0 -58 -14 -58 -40s34 -39 34 -65c0 -36 -30 -66 -66 -66s-65 30 -65 66c0 82 71 145 155 145c97 0 188 -56 188 -145c0 -142 -135 -154 -229 -208h2
c86 0 116 -61 169 -61c45 0 29 39 56 39c10 0 21 -7 21 -19c0 -27 -46 -106 -141 -106c-91 0 -96 66 -143 66z" />
    <glyph glyph-name="fattened.three" unicode="&#xe0bb;" horiz-adv-x="341" 
d="M259 266c0 -51 82 -37 82 -125c0 -93 -81 -141 -183 -141c-83 0 -158 52 -158 130c0 35 28 63 63 63s62 -28 62 -63c0 -24 -39 -27 -39 -51c0 -30 37 -39 72 -39c43 0 58 52 58 101v13c0 49 -1 86 -45 86h-68c-17 0 -25 13 -25 26s8 25 25 25h68c45 0 45 40 45 92v4
c0 45 -19 73 -62 73c-31 0 -65 -8 -65 -35c0 -21 34 -24 34 -45c0 -30 -24 -55 -54 -55s-55 25 -55 55c0 70 66 120 140 120c92 0 172 -31 172 -113c0 -98 -67 -69 -67 -121z" />
    <glyph glyph-name="fattened.four" unicode="&#xe0bc;" horiz-adv-x="409" 
d="M151 501c9 0 40 -14 71 -14c32 0 62 14 74 14c14 0 24 -10 24 -20c0 -3 -1 -7 -4 -10l-266 -296h141v51c0 56 46 39 72 82c7 11 9 25 15 37c3 6 10 9 16 9c11 0 22 -9 22 -24v-155h69c17 0 25 -12 25 -25s-8 -25 -25 -25h-69c0 -46 34 -85 78 -85c13 0 20 -10 20 -20
s-7 -20 -20 -20c-47 0 -94 13 -141 13s-94 -13 -141 -13c-13 0 -20 10 -20 20s7 20 20 20c44 0 79 39 79 85h-141c-40 0 -53 24 -53 40c0 5 1 8 3 10c74 83 128 185 128 296c0 16 10 30 23 30z" />
    <glyph glyph-name="fattened.four.alt" unicode="&#xe0bd;" horiz-adv-x="409" 
d="M151 501c9 0 40 -14 71 -14c32 0 62 14 74 14c14 0 24 -10 24 -20c0 -3 -1 -7 -4 -10l-266 -296h141v4c0 56 46 40 72 83c7 11 9 24 15 36c3 6 10 10 16 10c11 0 22 -9 22 -24v-109h69c17 0 25 -12 25 -25s-8 -25 -25 -25h-69c0 -46 34 -85 78 -85c13 0 20 -10 20 -20
s-7 -20 -20 -20c-47 0 -94 13 -141 13s-94 -13 -141 -13c-13 0 -20 10 -20 20s7 20 20 20c44 0 79 39 79 85h-141c-40 0 -53 24 -53 40c0 5 1 8 3 10c74 83 128 185 128 296c0 16 10 30 23 30z" />
    <glyph glyph-name="fattened.five" unicode="&#xe0be;" horiz-adv-x="345" 
d="M58 500c1 0 74 -13 131 -13c55 0 132 14 133 14c16 0 26 -11 26 -21c0 -12 -84 -97 -236 -97c-16 0 -29 -13 -29 -29v-51c26 26 65 28 102 28c114 0 181 -54 181 -165c0 -98 -94 -166 -198 -166c-87 0 -168 50 -168 130c0 35 28 63 63 63s62 -28 62 -63
c0 -24 -39 -27 -39 -51c0 -33 43 -39 82 -39c53 0 73 65 73 126c0 55 -9 115 -56 115c-119 0 -91 -46 -126 -46c-13 0 -26 9 -26 25v211c0 16 11 29 25 29z" />
    <glyph glyph-name="fattened.six" unicode="&#xe0bf;" horiz-adv-x="348" 
d="M174 228c-46 0 -49 -41 -49 -94s3 -94 49 -94c48 0 57 40 57 94s-9 94 -57 94zM125 255c14 8 31 14 49 14c102 0 174 -41 174 -135s-72 -134 -174 -134c-113 0 -174 124 -174 250c0 129 76 250 195 250c74 0 139 -50 139 -120c0 -35 -27 -63 -62 -63s-63 28 -63 63
c0 23 38 24 38 47s-26 33 -52 33c-63 0 -71 -64 -71 -135c0 -23 1 -47 1 -70z" />
    <glyph glyph-name="fattened.seven" unicode="&#xe0c0;" horiz-adv-x="325" 
d="M363 475c0 -21 -133 -170 -133 -364c0 -51 9 -81 9 -88c0 -13 -10 -24 -23 -24c-10 0 -41 14 -72 14s-61 -14 -72 -14c-13 0 -23 10 -23 22c0 6 51 136 177 333c-11 -3 -22 -5 -32 -5c-56 0 -65 43 -94 43c-30 0 -50 -49 -50 -74v-43c0 -17 -12 -25 -25 -25s-25 8 -25 25
v200c0 17 12 25 25 25s25 -8 25 -25v-16c0 -10 13 -18 21 -18c9 0 34 56 84 56s60 -47 97 -47c48 0 62 50 85 50c13 0 26 -11 26 -25z" />
    <glyph glyph-name="fattened.seven.alt" unicode="&#xe0c1;" horiz-adv-x="325" 
d="M363 475c0 -21 -133 -170 -133 -364c0 -51 9 -81 9 -88c0 -13 -10 -24 -23 -24c-10 0 -41 14 -72 14s-61 -14 -72 -14c-13 0 -23 10 -23 22c0 6 51 136 177 333c-11 -3 -22 -5 -32 -5c-56 0 -65 43 -94 43c-30 0 -50 -49 -50 -74c0 -17 -12 -25 -25 -25s-25 8 -25 25v157
c0 17 12 25 25 25s25 -8 25 -25v-16c0 -10 13 -18 21 -18c9 0 34 56 84 56s60 -47 97 -47c48 0 62 50 85 50c13 0 26 -11 26 -25z" />
    <glyph glyph-name="fattened.eight" unicode="&#xe0c2;" horiz-adv-x="375" 
d="M240 308c23 27 41 56 41 92c0 39 -43 60 -86 60c-41 0 -65 -32 -65 -61c0 -17 8 -33 24 -42zM293 277c61 -35 89 -84 89 -131c0 -76 -73 -146 -194 -146c-98 0 -188 59 -188 150c0 47 31 82 66 116c-33 27 -48 64 -48 99c0 69 61 135 177 135c80 0 162 -30 162 -100
c0 -48 -30 -87 -64 -123zM117 234c-23 -24 -41 -50 -41 -84c0 -61 50 -110 112 -110c50 0 79 38 79 74c0 20 -9 39 -29 50z" />
    <glyph glyph-name="fattened.nine" unicode="&#xe0c3;" horiz-adv-x="348" 
d="M174 272c46 0 49 41 49 94s-3 94 -49 94c-48 0 -57 -40 -57 -94s9 -94 57 -94zM223 245c-14 -8 -31 -14 -49 -14c-102 0 -174 41 -174 135s72 134 174 134c113 0 174 -124 174 -250c0 -129 -76 -250 -195 -250c-74 0 -139 50 -139 120c0 35 28 63 63 63s62 -28 62 -63
c0 -23 -37 -24 -37 -47s25 -33 51 -33c63 0 71 64 71 135c0 23 -1 47 -1 70z" />
    <glyph glyph-name="fattened.fixedwidth.zero" unicode="&#xe0c4;" horiz-adv-x="409" 
d="M205 450c-58 0 -63 -89 -63 -163v-37v-37c0 -74 5 -163 63 -163s63 89 63 163c0 13 -1 26 -1 37s1 24 1 37c0 74 -5 163 -63 163zM205 500c117 0 188 -122 188 -250s-71 -250 -188 -250s-188 122 -188 250s71 250 188 250z" />
    </font>
</defs>
</svg>
